<?xml version="1.0" encoding="UTF-8"?>
<svg version="1.1" xmlns="http://www.w3.org/2000/svg" width="336" height="121">
<path d="M0 0 C1.25159912 0.00523682 2.50319824 0.01047363 3.79272461 0.01586914 C4.78942421 0.01799156 4.78942421 0.01799156 5.80625916 0.02015686 C7.93590735 0.02577021 10.06545175 0.03832485 12.19506836 0.05102539 C13.63582205 0.05603868 15.07657739 0.06060188 16.51733398 0.06469727 C20.05577938 0.07574394 23.59416375 0.09301747 27.13256836 0.11352539 C26.15692007 2.10698438 25.21524959 3.99321184 23.95678711 5.82446289 C22.58591639 7.73431542 22.58591639 7.73431542 21.13256836 11.11352539 C21.49635829 14.59242683 21.49635829 14.59242683 24.13256836 17.11352539 C26.57000729 17.75704453 28.98475037 18.07424048 31.48022461 18.42602539 C35.9610064 19.58746515 39.27505618 22.52966235 42.13256836 26.11352539 C42.13256836 27.10352539 42.13256836 28.09352539 42.13256836 29.11352539 C42.79256836 29.11352539 43.45256836 29.11352539 44.13256836 29.11352539 C47.73185489 35.56224709 48.14514031 41.83462702 47.13256836 49.11352539 C44.60813144 56.74949947 41.31176207 62.32074381 34.13256836 66.11352539 C33.14256836 66.11352539 32.15256836 66.11352539 31.13256836 66.11352539 C31.22538086 67.72227539 31.22538086 67.72227539 31.32006836 69.36352539 C31.12713527 73.22218726 30.7359176 74.40170327 28.13256836 77.11352539 C28.64819336 77.58790039 29.16381836 78.06227539 29.69506836 78.55102539 C31.86743303 82.42350155 30.8858999 85.86582463 30.13256836 90.11352539 C28.15256836 90.60852539 28.15256836 90.60852539 26.13256836 91.11352539 C26.31819336 92.08290039 26.50381836 93.05227539 26.69506836 94.05102539 C26.83944336 95.06165039 26.98381836 96.07227539 27.13256836 97.11352539 C25.15296327 99.09313048 21.45510002 98.34346939 18.75756836 98.36352539 C18.07178711 98.38415039 17.38600586 98.40477539 16.67944336 98.42602539 C11.62612914 98.46535079 11.62612914 98.46535079 9.21459961 96.74633789 C7.67794788 94.42749159 7.19917452 92.91098418 7.13256836 90.11352539 C9.07006836 87.30102539 9.07006836 87.30102539 11.13256836 85.11352539 C10.03944336 84.70102539 8.94631836 84.28852539 7.82006836 83.86352539 C4.64388738 82.47556012 2.55485569 81.43219583 1.13256836 78.11352539 C1.63256836 75.05102539 1.63256836 75.05102539 3.13256836 72.11352539 C5.72631836 70.42993164 5.72631836 70.42993164 8.13256836 69.11352539 C7.38491211 68.5940332 6.63725586 68.07454102 5.86694336 67.53930664 C4.88209961 66.84192383 3.89725586 66.14454102 2.88256836 65.42602539 C1.42077148 64.39928711 1.42077148 64.39928711 -0.07055664 63.35180664 C-5.97913889 58.6232904 -9.27408426 53.15697811 -10.15649414 45.65649414 C-10.30600387 41.23236528 -9.93211435 37.81936651 -8.17993164 33.73852539 C-7.53024414 31.94415039 -7.53024414 31.94415039 -6.86743164 30.11352539 C-8.06289518 27.76847679 -8.06289518 27.76847679 -9.86743164 26.11352539 C-9.86743164 25.12352539 -9.86743164 24.13352539 -9.86743164 23.11352539 C-10.85743164 23.11352539 -11.84743164 23.11352539 -12.86743164 23.11352539 C-12.53743164 24.10352539 -12.20743164 25.09352539 -11.86743164 26.11352539 C-11.79888214 28.00823355 -11.78262792 29.90520879 -11.80493164 31.80102539 C-11.81395508 32.79489258 -11.82297852 33.78875977 -11.83227539 34.81274414 C-11.84387695 35.57200195 -11.85547852 36.33125977 -11.86743164 37.11352539 C-13.84743164 37.11352539 -15.82743164 37.11352539 -17.86743164 37.11352539 C-17.89462464 35.53028851 -17.9139147 33.94691477 -17.92993164 32.36352539 C-17.9415332 31.48180664 -17.95313477 30.60008789 -17.96508789 29.69165039 C-17.87569362 27.3316416 -17.53655985 25.36854015 -16.86743164 23.11352539 C-18.51743164 22.78352539 -20.16743164 22.45352539 -21.86743164 22.11352539 C-21.39187984 17.83355919 -18.95382991 15.919342 -15.86743164 13.11352539 C-15.08368164 12.51540039 -14.29993164 11.91727539 -13.49243164 11.30102539 C-9.85282709 8.2680216 -6.93126939 4.71271114 -3.86743164 1.11352539 C-2.86743164 0.11352539 -2.86743164 0.11352539 0 0 Z " fill="#234C88" transform="translate(39.867431640625,9.886474609375)"/>
<path d="M0 0 C6.33265466 3.30217636 9.99121518 7.27535388 12.3671875 14.046875 C13.19698994 18.8935087 13.35451755 23.21920505 10.9765625 27.62109375 C7.47961141 32.22034464 3.5953159 36.4328108 -1.6328125 39.046875 C-10.33943628 39.73389235 -16.50107791 39.35226267 -23.4453125 33.796875 C-28.65720684 27.24477926 -28.34941779 19.10868456 -27.6328125 11.046875 C-26.6171875 8.65234375 -26.6171875 8.65234375 -25.6328125 7.046875 C-24.9728125 7.046875 -24.3128125 7.046875 -23.6328125 7.046875 C-23.354375 6.180625 -23.354375 6.180625 -23.0703125 5.296875 C-18.15955139 -2.3895337 -7.93560498 -2.87283029 0 0 Z " fill="#F6A727" transform="translate(64.6328125,33.953125)"/>
<path d="M0 0 C1.25159912 0.00523682 2.50319824 0.01047363 3.79272461 0.01586914 C4.78942421 0.01799156 4.78942421 0.01799156 5.80625916 0.02015686 C7.93590735 0.02577021 10.06545175 0.03832485 12.19506836 0.05102539 C13.63582205 0.05603868 15.07657739 0.06060188 16.51733398 0.06469727 C20.05577938 0.07574394 23.59416375 0.09301747 27.13256836 0.11352539 C26.15692007 2.10698438 25.21524959 3.99321184 23.95678711 5.82446289 C22.58591639 7.73431542 22.58591639 7.73431542 21.13256836 11.11352539 C21.49635829 14.59242683 21.49635829 14.59242683 24.13256836 17.11352539 C26.57000729 17.75704453 28.98475037 18.07424048 31.48022461 18.42602539 C35.9610064 19.58746515 39.27505618 22.52966235 42.13256836 26.11352539 C42.13256836 27.10352539 42.13256836 28.09352539 42.13256836 29.11352539 C42.79256836 29.11352539 43.45256836 29.11352539 44.13256836 29.11352539 C47.73185489 35.56224709 48.14514031 41.83462702 47.13256836 49.11352539 C44.59920995 56.7764854 41.29418104 62.25727241 34.13256836 66.11352539 C33.47256836 66.11352539 32.81256836 66.11352539 32.13256836 66.11352539 C31.80256836 65.12352539 31.47256836 64.13352539 31.13256836 63.11352539 C32.24631836 62.09258789 32.24631836 62.09258789 33.38256836 61.05102539 C38.41502246 56.01857129 40.83938674 50.51443212 41.44506836 43.48852539 C41.31906876 37.33745404 39.36871299 31.70376668 35.33178711 27.02758789 C29.12417002 21.31416945 23.11175046 18.5320251 14.62084961 18.82836914 C6.9052002 19.71258014 1.42162118 23.21538871 -3.55493164 29.11352539 C-5.54596859 33.66446699 -4.9304604 37.85997476 -4.55493164 42.73852539 C-4.43374151 44.62654004 -4.31264369 46.51456062 -4.19165039 48.40258789 C-4.10016724 49.65096436 -4.10016724 49.65096436 -4.00683594 50.92456055 C-3.89686584 52.6513414 -3.86743164 54.38324636 -3.86743164 56.11352539 C-2.78716651 57.98847103 -2.78716651 57.98847103 -1.36743164 59.80102539 C-0.90336914 60.42364258 -0.43930664 61.04625977 0.03881836 61.68774414 C0.39975586 62.15825195 0.76069336 62.62875977 1.13256836 63.11352539 C-3.28186675 61.37928303 -5.60672292 58.52228376 -7.78540039 54.35961914 C-10.31896857 48.47174942 -11.20861897 41.99696332 -9.08227539 35.84008789 C-8.78450195 35.14657227 -8.48672852 34.45305664 -8.17993164 33.73852539 C-7.53024414 31.94415039 -7.53024414 31.94415039 -6.86743164 30.11352539 C-8.06289518 27.76847679 -8.06289518 27.76847679 -9.86743164 26.11352539 C-9.86743164 25.12352539 -9.86743164 24.13352539 -9.86743164 23.11352539 C-10.85743164 23.11352539 -11.84743164 23.11352539 -12.86743164 23.11352539 C-12.53743164 24.10352539 -12.20743164 25.09352539 -11.86743164 26.11352539 C-11.79888214 28.00823355 -11.78262792 29.90520879 -11.80493164 31.80102539 C-11.81395508 32.79489258 -11.82297852 33.78875977 -11.83227539 34.81274414 C-11.84387695 35.57200195 -11.85547852 36.33125977 -11.86743164 37.11352539 C-13.84743164 37.11352539 -15.82743164 37.11352539 -17.86743164 37.11352539 C-17.89462464 35.53028851 -17.9139147 33.94691477 -17.92993164 32.36352539 C-17.9415332 31.48180664 -17.95313477 30.60008789 -17.96508789 29.69165039 C-17.87569362 27.3316416 -17.53655985 25.36854015 -16.86743164 23.11352539 C-18.51743164 22.78352539 -20.16743164 22.45352539 -21.86743164 22.11352539 C-21.39187984 17.83355919 -18.95382991 15.919342 -15.86743164 13.11352539 C-15.08368164 12.51540039 -14.29993164 11.91727539 -13.49243164 11.30102539 C-9.85282709 8.2680216 -6.93126939 4.71271114 -3.86743164 1.11352539 C-2.86743164 0.11352539 -2.86743164 0.11352539 0 0 Z " fill="#E4E9F2" transform="translate(39.867431640625,9.886474609375)"/>
<path d="M0 0 C1.12591553 0.00523682 2.25183105 0.01047363 3.41186523 0.01586914 C4.62680664 0.0190918 5.84174805 0.02231445 7.09350586 0.02563477 C8.37290039 0.03401367 9.65229492 0.04239258 10.97045898 0.05102539 C12.2537207 0.05553711 13.53698242 0.06004883 14.85913086 0.06469727 C18.04211921 0.07652994 21.22501661 0.09301471 24.40795898 0.11352539 C21.60589206 5.02394363 19.45286378 7.03171275 14.15795898 8.98852539 C13.08030273 9.39844727 12.00264648 9.80836914 10.89233398 10.23071289 C9.66256836 10.66770508 9.66256836 10.66770508 8.40795898 11.11352539 C9.06795898 11.11352539 9.72795898 11.11352539 10.40795898 11.11352539 C13.40795898 11.11352539 16.40795898 11.11352539 19.40795898 11.11352539 C19.40795898 12.10352539 19.40795898 13.09352539 19.40795898 14.11352539 C18.65772461 14.18829102 17.90749023 14.26305664 17.13452148 14.34008789 C6.94605332 15.64893393 -0.76604465 19.37739618 -7.59204102 27.11352539 C-8.25204102 25.13352539 -8.91204102 23.15352539 -9.59204102 21.11352539 C-11.24204102 21.11352539 -12.89204102 21.11352539 -14.59204102 21.11352539 C-14.59204102 25.40352539 -14.59204102 29.69352539 -14.59204102 34.11352539 C-15.58204102 33.78352539 -16.57204102 33.45352539 -17.59204102 33.11352539 C-17.26204102 28.82352539 -16.93204102 24.53352539 -16.59204102 20.11352539 C-17.91204102 19.78352539 -19.23204102 19.45352539 -20.59204102 19.11352539 C-19.95137695 18.48446289 -19.31071289 17.85540039 -18.65063477 17.20727539 C-13.40299306 12.01437808 -8.3846721 6.72691286 -3.59204102 1.11352539 C-2.59204102 0.11352539 -2.59204102 0.11352539 0 0 Z " fill="#134690" transform="translate(40.592041015625,10.886474609375)"/>
<path d="M0 0 C0.66 0.28875 1.32 0.5775 2 0.875 C9.60335722 3.72625896 16.94008797 4.4895389 25 5 C25 5.99 25 6.98 25 8 C18.4 8.33 11.8 8.66 5 9 C5 11.97 5 14.94 5 18 C7.81256281 18.02684312 10.62487241 18.04676188 13.4375 18.0625 C14.64116211 18.07506836 14.64116211 18.07506836 15.86914062 18.08789062 C17.91295221 18.0965143 19.95683902 18.0522815 22 18 C22.33 17.67 22.66 17.34 23 17 C17.72 16.67 12.44 16.34 7 16 C7 14.68 7 13.36 7 12 C7.84763916 11.970271 7.84763916 11.970271 8.71240234 11.93994141 C11.26707997 11.84481764 13.82092541 11.73508942 16.375 11.625 C17.70917969 11.57859375 17.70917969 11.57859375 19.0703125 11.53125 C19.92109375 11.49257812 20.771875 11.45390625 21.6484375 11.4140625 C22.43395996 11.3826416 23.21948242 11.3512207 24.02880859 11.31884766 C26.23002939 11.1600535 26.23002939 11.1600535 28 9 C28.24212873 7.01871492 28.24212873 7.01871492 28.125 4.875 C28.08375 3.59625 28.0425 2.3175 28 1 C28.66 1.33 29.32 1.66 30 2 C30.36923077 9.38461538 30.36923077 9.38461538 28.5 12.5 C28.005 12.995 27.51 13.49 27 14 C27.7734375 14.7115625 27.7734375 14.7115625 28.5625 15.4375 C30.73486467 19.30997616 29.75333154 22.75229924 29 27 C27.68 27.33 26.36 27.66 25 28 C25.185625 28.969375 25.37125 29.93875 25.5625 30.9375 C25.706875 31.948125 25.85125 32.95875 26 34 C24.02039491 35.97960509 20.32253166 35.229944 17.625 35.25 C16.93921875 35.270625 16.2534375 35.29125 15.546875 35.3125 C10.49356078 35.3518254 10.49356078 35.3518254 8.08203125 33.6328125 C6.54537952 31.3139662 6.06660616 29.79745879 6 27 C7.9375 24.1875 7.9375 24.1875 10 22 C8.906875 21.5875 7.81375 21.175 6.6875 20.75 C3.51131902 19.36203473 1.42228733 18.31867044 0 15 C0.5 11.9375 0.5 11.9375 2 9 C4.625 7.125 4.625 7.125 7 6 C6.4946875 5.65066406 5.989375 5.30132812 5.46875 4.94140625 C4.49421875 4.25884766 4.49421875 4.25884766 3.5 3.5625 C2.8503125 3.11003906 2.200625 2.65757813 1.53125 2.19140625 C1.0259375 1.79824219 0.520625 1.40507813 0 1 C0 0.67 0 0.34 0 0 Z " fill="#5174A7" transform="translate(41,73)"/>
<path d="M0 0 C3.125 0.25 3.125 0.25 4.8125 1.375 C6.55638097 3.86625853 7.81232466 6.51050365 9.125 9.25 C10.115 10.735 10.115 10.735 11.125 12.25 C11.455 8.29 11.785 4.33 12.125 0.25 C14.105 0.25 16.085 0.25 18.125 0.25 C18.2117982 4.04152334 18.26532207 7.83279296 18.3125 11.625 C18.33763672 12.70523438 18.36277344 13.78546875 18.38867188 14.8984375 C18.39833984 15.9296875 18.40800781 16.9609375 18.41796875 18.0234375 C18.4336792 18.97653809 18.44938965 19.92963867 18.46557617 20.91162109 C18.35318604 21.68328613 18.2407959 22.45495117 18.125 23.25 C15.125 25.25 15.125 25.25 12.75 25.375 C8.603526 23.59793972 7.23249276 20.08427714 5.125 16.25 C4.135 14.6 3.145 12.95 2.125 11.25 C1.795 15.54 1.465 19.83 1.125 24.25 C-0.195 24.58 -1.515 24.91 -2.875 25.25 C-4.56016954 23.56483046 -4.00508019 21.46232212 -4.0078125 19.15625 C-4.00974609 17.61130859 -4.00974609 17.61130859 -4.01171875 16.03515625 C-4.00785156 14.95105469 -4.00398437 13.86695313 -4 12.75 C-4.00386719 11.66589844 -4.00773438 10.58179688 -4.01171875 9.46484375 C-4.01042969 8.43488281 -4.00914062 7.40492187 -4.0078125 6.34375 C-4.00668457 5.39177734 -4.00555664 4.43980469 -4.00439453 3.45898438 C-3.80757853 0.09900104 -3.41006692 0.29652756 0 0 Z " fill="#A4B6CF" transform="translate(184.875,41.75)"/>
<path d="M0 0 C1.11084961 0.02707031 1.11084961 0.02707031 2.24414062 0.0546875 C4.0591571 0.10152663 5.87350166 0.17326211 7.6875 0.25 C7.6875 2.23 7.6875 4.21 7.6875 6.25 C2.7375 6.25 -2.2125 6.25 -7.3125 6.25 C-6.9825 10.21 -6.6525 14.17 -6.3125 18.25 C-3.3425 18.58 -0.3725 18.91 2.6875 19.25 C2.6875 17.6 2.6875 15.95 2.6875 14.25 C0.0475 14.25 -2.5925 14.25 -5.3125 14.25 C-5.3125 12.6 -5.3125 10.95 -5.3125 9.25 C-1.0225 9.25 3.2675 9.25 7.6875 9.25 C7.6875 13.87 7.6875 18.49 7.6875 23.25 C2.07740424 26.05504788 -3.26427276 26.07556155 -9.3125 24.4375 C-11.3125 23.25 -11.3125 23.25 -13.3125 20.25 C-13.58664795 17.55180706 -13.72825257 15.01159812 -13.75 12.3125 C-13.78287109 11.59642578 -13.81574219 10.88035156 -13.84960938 10.14257812 C-13.88655524 6.51852436 -13.60179302 4.60852072 -11.3046875 1.76171875 C-7.37056753 -0.22588494 -4.33250367 -0.20133172 0 0 Z " fill="#AEBED5" transform="translate(240.3125,41.75)"/>
<path d="M0 0 C1.010625 -0.0103125 2.02125 -0.020625 3.0625 -0.03125 C6.86088518 0.655692 8.45515194 1.58633338 11 4.5 C11.45924564 7.40049875 11.61459297 9.62475828 11.5 12.5 C11.50386719 13.56734375 11.50386719 13.56734375 11.5078125 14.65625 C11.42964697 18.84592229 11.03547433 21.51725103 8 24.5 C3.50181434 26.49919363 -2.2345072 25.99894362 -6.875 24.6875 C-9 23.5 -9 23.5 -11 20.5 C-11.27414795 17.80180706 -11.41575257 15.26159812 -11.4375 12.5625 C-11.47037109 11.84642578 -11.50324219 11.13035156 -11.53710938 10.39257812 C-11.5750566 6.67030017 -11.31999769 4.86761985 -8.84765625 2.02734375 C-5.62435903 0.29852453 -3.63987189 -0.03714155 0 0 Z M-5 6.5 C-5.02686553 8.47909398 -5.04633375 10.45828971 -5.0625 12.4375 C-5.07410156 13.53964844 -5.08570313 14.64179687 -5.09765625 15.77734375 C-5.31262571 18.41447634 -5.31262571 18.41447634 -4 19.5 C-2.12678052 19.66053815 -2.12678052 19.66053815 0 19.625 C0.721875 19.62757812 1.44375 19.63015625 2.1875 19.6328125 C4.02089415 19.69695276 4.02089415 19.69695276 5 18.5 C5.07244053 16.48035801 5.08377188 14.45832876 5.0625 12.4375 C5.05347656 11.33277344 5.04445312 10.22804688 5.03515625 9.08984375 C5.02355469 8.23519531 5.01195312 7.38054688 5 6.5 C1.7 6.5 -1.6 6.5 -5 6.5 Z " fill="#7A95BB" transform="translate(215,41.5)"/>
<path d="M0 0 C2.97922593 -0.02683987 5.95821295 -0.04676037 8.9375 -0.0625 C9.78763672 -0.07087891 10.63777344 -0.07925781 11.51367188 -0.08789062 C12.32255859 -0.09111328 13.13144531 -0.09433594 13.96484375 -0.09765625 C14.7137085 -0.10289307 15.46257324 -0.10812988 16.23413086 -0.11352539 C18 0 18 0 19 1 C19.14115161 3.67058851 19.04247107 6.32432238 19 9 C17.02 9.99 17.02 9.99 15 11 C15 11.66 15 12.32 15 13 C13.03277992 14.38123963 11.03131672 15.71488126 9 17 C8.67 17.33 8.34 17.66 8 18 C11.63 18.33 15.26 18.66 19 19 C19 20.65 19 22.3 19 24 C15.85418577 24.02888514 12.70840531 24.04675923 9.5625 24.0625 C8.66466797 24.07087891 7.76683594 24.07925781 6.84179688 24.08789062 C5.56079102 24.09272461 5.56079102 24.09272461 4.25390625 24.09765625 C3.46314697 24.10289307 2.6723877 24.10812988 1.85766602 24.11352539 C0 24 0 24 -1 23 C-1.23728814 16.47457627 -1.23728814 16.47457627 0 14 C1.65848177 12.98648336 3.32665961 11.98879205 5 11 C6.68477344 9.68962066 8.35648543 8.36176922 10 7 C6.7 6.67 3.4 6.34 0 6 C-1 2 -1 2 0 0 Z " fill="#7590B8" transform="translate(257,42)"/>
<path d="M0 0 C1.65 0 3.3 0 5 0 C5 2.97 5 5.94 5 9 C7.97 9 10.94 9 14 9 C14 6.03 14 3.06 14 0 C15.98 0 17.96 0 20 0 C20 7.92 20 15.84 20 24 C16 25 16 25 14 24 C14 21.03 14 18.06 14 15 C11.03 15 8.06 15 5 15 C5 17.97 5 20.94 5 24 C3.68 24.33 2.36 24.66 1 25 C0 24 0 24 -0.11352539 21.68334961 C-0.10828857 20.68311768 -0.10305176 19.68288574 -0.09765625 18.65234375 C-0.09443359 17.57275391 -0.09121094 16.49316406 -0.08789062 15.38085938 C-0.07951172 14.24455078 -0.07113281 13.10824219 -0.0625 11.9375 C-0.05798828 10.79732422 -0.05347656 9.65714844 -0.04882812 8.48242188 C-0.03699747 5.65489649 -0.0205141 2.8274736 0 0 Z " fill="#9FB4D0" transform="translate(160,42)"/>
<path d="M0 0 C0.39832031 0.64324219 0.79664063 1.28648438 1.20703125 1.94921875 C3.4141049 4.47364939 4.41548836 4.50944084 7.6875 4.8125 C13.45697706 5.74442728 17.36000185 8.43475092 21 13 C21 13.99 21 14.98 21 16 C21.66 16 22.32 16 23 16 C26.59928653 22.4487217 27.01257195 28.72110162 26 36 C23.46664159 43.66296001 20.16161268 49.14374702 13 53 C12.34 53 11.68 53 11 53 C10.67 52.01 10.34 51.02 10 50 C11.11375 48.9790625 11.11375 48.9790625 12.25 47.9375 C17.2824541 42.9050459 19.70681839 37.40090673 20.3125 30.375 C20.1865004 24.22392865 18.23614463 18.59024129 14.19921875 13.9140625 C6.2437649 6.59195546 -1.47960407 5.45878418 -12 5 C-8.79619983 2.86413322 -7.98060033 2.76867825 -4.3125 2.875 C-3.10013672 2.90207031 -3.10013672 2.90207031 -1.86328125 2.9296875 C-0.94095703 2.96449219 -0.94095703 2.96449219 0 3 C0 2.01 0 1.02 0 0 Z " fill="#F3E2C4" transform="translate(61,23)"/>
<path d="M0 0 C3.02525785 3.02525785 3.26502131 6.00112404 3.5 10.125 C3.45572866 16.80997256 0.60426561 20.40528681 -4 25 C-9.47340406 29.86524805 -12.74012464 30.29249567 -19.953125 30.21484375 C-25.41253695 29.82988522 -28.61728606 28.14224195 -32.875 24.625 C-35.05504603 21.93200196 -35.70802098 20.40642186 -36 17 C-35.34 17 -34.68 17 -34 17 C-33.87625 17.639375 -33.7525 18.27875 -33.625 18.9375 C-33.315625 19.9584375 -33.315625 19.9584375 -33 21 C-32.34 21.33 -31.68 21.66 -31 22 C-30.67 20.35 -30.34 18.7 -30 17 C-27.625 17.25 -27.625 17.25 -25 18 C-23.8359375 20.046875 -23.8359375 20.046875 -23 22 C-17.17961043 21.67224991 -12.93073694 21.33549852 -8 18 C-6.68 18 -5.36 18 -4 18 C-3.505 18.99 -3.505 18.99 -3 20 C-2.67 19.34 -2.34 18.68 -2 18 C-1.34 18 -0.68 18 0 18 C0 16.68 0 15.36 0 14 C0.66 14 1.32 14 2 14 C1.855625 13.32453125 1.71125 12.6490625 1.5625 11.953125 C1.376875 11.06109375 1.19125 10.1690625 1 9.25 C0.814375 8.36828125 0.62875 7.4865625 0.4375 6.578125 C0 4 0 4 0 0 Z " fill="#CA8D2D" transform="translate(74,43)"/>
<path d="M0 0 C1.88138672 0.05414063 1.88138672 0.05414063 3.80078125 0.109375 C5.22970703 0.17898437 5.22970703 0.17898437 6.6875 0.25 C6.6875 2.23 6.6875 4.21 6.6875 6.25 C2.3975 6.25 -1.8925 6.25 -6.3125 6.25 C-5.9825 10.21 -5.6525 14.17 -5.3125 18.25 C-1.3525 18.58 2.6075 18.91 6.6875 19.25 C6.6875 20.9 6.6875 22.55 6.6875 24.25 C5.05820843 25.87929157 3.24055904 25.42075442 1 25.4375 C-3.13432171 25.39018301 -6.52212995 25.05042578 -10.3125 23.25 C-12.77972592 19.54916112 -12.7154366 16.60220162 -12.75 12.3125 C-12.78287109 11.59642578 -12.81574219 10.88035156 -12.84960938 10.14257812 C-12.8870028 6.47462276 -12.61219926 4.61020458 -10.2421875 1.76171875 C-6.58601568 -0.12486591 -4.09325946 -0.15301905 0 0 Z " fill="#829BBF" transform="translate(151.3125,41.75)"/>
<path d="M0 0 C0.66 0 1.32 0 2 0 C1.75 2.375 1.75 2.375 1 5 C-1.0625 6.3125 -1.0625 6.3125 -3 7 C-2.6596875 8.8871875 -2.6596875 8.8871875 -2.3125 10.8125 C-1.92578125 12.95703125 -1.92578125 12.95703125 -2 15 C-3.58911545 17.08508142 -4.4673155 17.91297636 -7.0847168 18.34057617 C-8.25514526 18.3170105 -8.25514526 18.3170105 -9.44921875 18.29296875 C-10.29677734 18.28330078 -11.14433594 18.27363281 -12.01757812 18.26367188 C-13.33918945 18.2259668 -13.33918945 18.2259668 -14.6875 18.1875 C-15.58017578 18.17396484 -16.47285156 18.16042969 -17.39257812 18.14648438 C-19.59566166 18.11114079 -21.79752582 18.06180493 -24 18 C-24 19.32 -24 20.64 -24 22 C-18.39 22 -12.78 22 -7 22 C-7.66 22.99 -8.32 23.98 -9 25 C-11.93383336 25.24817926 -14.63632685 25.32643881 -17.5625 25.25 C-18.75262695 25.24226563 -18.75262695 25.24226563 -19.96679688 25.234375 C-25.84595509 25.15404491 -25.84595509 25.15404491 -27 24 C-27.0979057 22.50261876 -27.12974864 21.00057108 -27.125 19.5 C-27.12757812 18.6853125 -27.13015625 17.870625 -27.1328125 17.03125 C-27 15 -27 15 -26 14 C-24.5112814 13.91330568 -23.018555 13.89296506 -21.52734375 13.90234375 C-20.62822266 13.90556641 -19.72910156 13.90878906 -18.80273438 13.91210938 C-17.85720703 13.92048828 -16.91167969 13.92886719 -15.9375 13.9375 C-14.98810547 13.94201172 -14.03871094 13.94652344 -13.06054688 13.95117188 C-10.70696935 13.9629989 -8.35351523 13.97947975 -6 14 C-6.33 13.01 -6.66 12.02 -7 11 C-7.67546875 10.96261719 -8.3509375 10.92523438 -9.046875 10.88671875 C-10.38492188 10.78810547 -10.38492188 10.78810547 -11.75 10.6875 C-13.07257812 10.60048828 -13.07257812 10.60048828 -14.421875 10.51171875 C-17.32303774 9.9358819 -18.79225607 8.92403852 -21 7 C-19.67935547 6.90912109 -19.67935547 6.90912109 -18.33203125 6.81640625 C-16.58986328 6.69072266 -16.58986328 6.69072266 -14.8125 6.5625 C-13.66394531 6.48128906 -12.51539063 6.40007812 -11.33203125 6.31640625 C-8.46624945 6.04427457 -5.77539488 5.76058916 -3 5 C-1.69934079 3.06616713 -1.69934079 3.06616713 -1 1 C-0.67 0.67 -0.34 0.34 0 0 Z " fill="#0E428C" transform="translate(72,67)"/>
<path d="M0 0 C0.74886475 0.00523682 1.49772949 0.01047363 2.26928711 0.01586914 C3.07817383 0.0190918 3.88706055 0.02231445 4.72045898 0.02563477 C5.5705957 0.03401367 6.42073242 0.04239258 7.29663086 0.05102539 C8.15063477 0.05553711 9.00463867 0.06004883 9.88452148 0.06469727 C12.00108749 0.07652166 14.11761771 0.0944577 16.23413086 0.11352539 C16.27685186 1.77964444 16.27476918 3.44735424 16.23413086 5.11352539 C15.23413086 6.11352539 15.23413086 6.11352539 12.51147461 6.21118164 C10.85825195 6.1937793 10.85825195 6.1937793 9.17163086 6.17602539 C7.51454102 6.16249023 7.51454102 6.16249023 5.82397461 6.14868164 C4.96932617 6.13708008 4.11467773 6.12547852 3.23413086 6.11352539 C3.56413086 6.77352539 3.89413086 7.43352539 4.23413086 8.11352539 C7.05011576 8.58251502 7.05011576 8.58251502 10.29663086 8.73852539 C11.9537207 8.85067383 11.9537207 8.85067383 13.64428711 8.96508789 C14.49893555 9.01407227 15.35358398 9.06305664 16.23413086 9.11352539 C16.23413086 11.09352539 16.23413086 13.07352539 16.23413086 15.11352539 C13.62885981 15.22145377 11.02804775 15.30077417 8.42163086 15.36352539 C7.68364258 15.39704102 6.9456543 15.43055664 6.18530273 15.46508789 C0.76480502 15.56319645 0.76480502 15.56319645 -1.76196289 13.42211914 C-2.93040772 10.73515069 -3.10218917 8.84795851 -3.01586914 5.92602539 C-3.00040039 5.0455957 -2.98493164 4.16516602 -2.96899414 3.25805664 C-2.72036183 0.63307322 -2.64431887 0.16999976 0 0 Z " fill="#89A0C1" transform="translate(121.765869140625,50.886474609375)"/>
<path d="M0 0 C0.83265381 0.00523682 1.66530762 0.01047363 2.52319336 0.01586914 C3.42231445 0.0190918 4.32143555 0.02231445 5.24780273 0.02563477 C6.66609375 0.03820313 6.66609375 0.03820313 8.11303711 0.05102539 C9.06243164 0.05553711 10.01182617 0.06004883 10.98999023 0.06469727 C13.34356776 0.07652429 15.69702188 0.09300514 18.05053711 0.11352539 C18.05053711 2.09352539 18.05053711 4.07352539 18.05053711 6.11352539 C15.74053711 6.11352539 13.43053711 6.11352539 11.05053711 6.11352539 C11.05053711 12.05352539 11.05053711 17.99352539 11.05053711 24.11352539 C9.40053711 24.11352539 7.75053711 24.11352539 6.05053711 24.11352539 C5.05053711 23.11352539 5.05053711 23.11352539 4.95288086 19.29711914 C4.95955622 17.71505857 4.97151835 16.1330138 4.98803711 14.55102539 C4.99254883 13.7447168 4.99706055 12.9384082 5.00170898 12.10766602 C5.01353193 10.10958783 5.03146797 8.11154756 5.05053711 6.11352539 C2.74053711 6.11352539 0.43053711 6.11352539 -1.94946289 6.11352539 C-2.33165056 4.45737882 -2.66341391 2.78895515 -2.94946289 1.11352539 C-1.94946289 0.11352539 -1.94946289 0.11352539 0 0 Z " fill="#B8C5D8" transform="translate(98.949462890625,41.886474609375)"/>
<path d="M0 0 C1.58206057 0.00667536 3.16410534 0.0186375 4.74609375 0.03515625 C5.55240234 0.03966797 6.35871094 0.04417969 7.18945312 0.04882812 C9.18753131 0.06065107 11.18557158 0.07858711 13.18359375 0.09765625 C13.22631475 1.7637753 13.22423207 3.4314851 13.18359375 5.09765625 C12.18359375 6.09765625 12.18359375 6.09765625 9.6796875 6.1953125 C8.16568359 6.17791016 8.16568359 6.17791016 6.62109375 6.16015625 C5.60917969 6.15113281 4.59726562 6.14210938 3.5546875 6.1328125 C2.38099609 6.11541016 2.38099609 6.11541016 1.18359375 6.09765625 C1.18359375 7.08765625 1.18359375 8.07765625 1.18359375 9.09765625 C5.14359375 9.09765625 9.10359375 9.09765625 13.18359375 9.09765625 C13.18359375 11.07765625 13.18359375 13.05765625 13.18359375 15.09765625 C10.55832186 15.15147731 7.93414662 15.19123938 5.30859375 15.22265625 C4.56222656 15.23941406 3.81585938 15.25617188 3.046875 15.2734375 C1.09164914 15.29105215 -0.86382646 15.20085814 -2.81640625 15.09765625 C-4.81640625 13.09765625 -4.81640625 13.09765625 -5.046875 10.3125 C-5.03269531 9.23097656 -5.01851563 8.14945313 -5.00390625 7.03515625 C-4.99746094 5.95105469 -4.99101562 4.86695313 -4.984375 3.75 C-4.71999259 -0.42478272 -4.39001021 0.11233394 0 0 Z " fill="#99ADCB" transform="translate(282.81640625,50.90234375)"/>
<path d="M0 0 C2.97922593 -0.02683987 5.95821295 -0.04676037 8.9375 -0.0625 C9.78763672 -0.07087891 10.63777344 -0.07925781 11.51367188 -0.08789062 C12.32255859 -0.09111328 13.13144531 -0.09433594 13.96484375 -0.09765625 C14.7137085 -0.10289307 15.46257324 -0.10812988 16.23413086 -0.11352539 C18 0 18 0 19 1 C19.14115161 3.67058851 19.04247107 6.32432238 19 9 C17.02 9.99 17.02 9.99 15 11 C15 11.66 15 12.32 15 13 C13.68 13.33 12.36 13.66 11 14 C11.33 13.34 11.66 12.68 12 12 C12.66 12 13.32 12 14 12 C13.67 11.01 13.34 10.02 13 9 C9.62496331 10.1858237 7.35277269 11.27573689 5 14 C4.34 13.67 3.68 13.34 3 13 C5.31 11.02 7.62 9.04 10 7 C6.7 6.67 3.4 6.34 0 6 C-1 2 -1 2 0 0 Z " fill="#BCC9DC" transform="translate(257,42)"/>
<path d="M0 0 C1.98 0 3.96 0 6 0 C6 7.92 6 15.84 6 24 C2 25 2 25 0 24 C0 16.08 0 8.16 0 0 Z " fill="#7994BA" transform="translate(249,42)"/>
<path d="M0 0 C1.25159912 0.00523682 2.50319824 0.01047363 3.79272461 0.01586914 C4.78942421 0.01799156 4.78942421 0.01799156 5.80625916 0.02015686 C7.93590735 0.02577021 10.06545175 0.03832485 12.19506836 0.05102539 C13.63582205 0.05603868 15.07657739 0.06060188 16.51733398 0.06469727 C20.05577938 0.07574394 23.59416375 0.09301747 27.13256836 0.11352539 C25.17933484 4.05996939 23.22395269 7.9255353 20.13256836 11.11352539 C17.32006836 11.55102539 17.32006836 11.55102539 15.13256836 11.11352539 C15.79256836 10.45352539 16.45256836 9.79352539 17.13256836 9.11352539 C18.12256836 9.11352539 19.11256836 9.11352539 20.13256836 9.11352539 C20.42131836 8.51540039 20.71006836 7.91727539 21.00756836 7.30102539 C22.13256836 5.11352539 22.13256836 5.11352539 24.13256836 2.11352539 C19.88292709 1.96838737 15.63392201 1.87950502 11.38256836 1.80102539 C10.17600586 1.75913086 8.96944336 1.71723633 7.72631836 1.67407227 C5.98608398 1.64990234 5.98608398 1.64990234 4.21069336 1.62524414 C2.60822754 1.58596802 2.60822754 1.58596802 0.97338867 1.54589844 C-2.84177183 2.30820921 -3.74049367 3.95585417 -5.86743164 7.11352539 C-7.51111304 8.80286461 -9.18171924 10.46612463 -10.86743164 12.11352539 C-12.30627072 13.54968507 -13.74369872 14.98725943 -15.17993164 16.42602539 C-16.40909831 17.65519206 -17.63826497 18.88435872 -18.86743164 20.11352539 C-17.87743164 20.44352539 -16.88743164 20.77352539 -15.86743164 21.11352539 C-15.86743164 25.40352539 -15.86743164 29.69352539 -15.86743164 34.11352539 C-15.20743164 34.44352539 -14.54743164 34.77352539 -13.86743164 35.11352539 C-13.86743164 32.47352539 -13.86743164 29.83352539 -13.86743164 27.11352539 C-13.53743164 27.11352539 -13.20743164 27.11352539 -12.86743164 27.11352539 C-12.53743164 30.41352539 -12.20743164 33.71352539 -11.86743164 37.11352539 C-13.84743164 37.11352539 -15.82743164 37.11352539 -17.86743164 37.11352539 C-17.89462464 35.53028851 -17.9139147 33.94691477 -17.92993164 32.36352539 C-17.9415332 31.48180664 -17.95313477 30.60008789 -17.96508789 29.69165039 C-17.87569362 27.3316416 -17.53655985 25.36854015 -16.86743164 23.11352539 C-18.51743164 22.78352539 -20.16743164 22.45352539 -21.86743164 22.11352539 C-21.39187984 17.83355919 -18.95382991 15.919342 -15.86743164 13.11352539 C-15.08368164 12.51540039 -14.29993164 11.91727539 -13.49243164 11.30102539 C-9.85282709 8.2680216 -6.93126939 4.71271114 -3.86743164 1.11352539 C-2.86743164 0.11352539 -2.86743164 0.11352539 0 0 Z " fill="#E1E7EF" transform="translate(39.867431640625,9.886474609375)"/>
<path d="M0 0 C0 1.32 0 2.64 0 4 C-0.99 4.01417969 -1.98 4.02835938 -3 4.04296875 C-10.54463256 4.27115999 -17.23234179 4.52243111 -23 10 C-23.33 10.66 -23.66 11.32 -24 12 C-24.66 12 -25.32 12 -26 12 C-26 11.34 -26 10.68 -26 10 C-26.66 10 -27.32 10 -28 10 C-26.47661954 5.88687276 -23.59363087 3.3487241 -20 1 C-13.74290379 -1.52690424 -6.45269034 -2.15089678 0 0 Z " fill="#1C447D" transform="translate(65,29)"/>
<path d="M0 0 C6.27 0 12.54 0 19 0 C18.67 0.99 18.34 1.98 18 3 C16.60974609 3.09087891 16.60974609 3.09087891 15.19140625 3.18359375 C13.99386719 3.26738281 12.79632813 3.35117188 11.5625 3.4375 C10.36753906 3.51871094 9.17257813 3.59992188 7.94140625 3.68359375 C5.11429756 3.67656114 5.11429756 3.67656114 4 5 C3.83333333 8.5 3.83333333 8.5 4 12 C5.11126659 13.33901792 5.11126659 13.33901792 7.94140625 13.09765625 C9.13636719 13.08605469 10.33132812 13.07445313 11.5625 13.0625 C12.76003906 13.05347656 13.95757812 13.04445313 15.19140625 13.03515625 C16.58166016 13.01775391 16.58166016 13.01775391 18 13 C18 12.34 18 11.68 18 11 C14.37 10.67 10.74 10.34 7 10 C7 9.01 7 8.02 7 7 C7.90363281 6.95101562 8.80726562 6.90203125 9.73828125 6.8515625 C10.91777344 6.77679688 12.09726562 6.70203125 13.3125 6.625 C15.07013672 6.52058594 15.07013672 6.52058594 16.86328125 6.4140625 C20.15699887 6.21386253 20.15699887 6.21386253 23 4 C23 4.99 23 5.98 23 7 C21.68 7.33 20.36 7.66 19 8 C19.185625 8.969375 19.37125 9.93875 19.5625 10.9375 C19.706875 11.948125 19.85125 12.95875 20 14 C18.02039491 15.97960509 14.32253166 15.229944 11.625 15.25 C10.93921875 15.270625 10.2534375 15.29125 9.546875 15.3125 C4.49356078 15.3518254 4.49356078 15.3518254 2.08203125 13.6328125 C0.54537952 11.3139662 0.06660616 9.79745879 0 7 C1.9375 4.1875 1.9375 4.1875 4 2 C2.68 1.34 1.36 0.68 0 0 Z " fill="#DBE2ED" transform="translate(47,93)"/>
<path d="M0 0 C0.75410156 0.00451172 1.50820312 0.00902344 2.28515625 0.01367188 C4.14847127 0.02546501 6.01174555 0.04340058 7.875 0.0625 C7.875 2.0425 7.875 4.0225 7.875 6.0625 C2.595 6.0625 -2.685 6.0625 -8.125 6.0625 C-8.125 10.0225 -8.125 13.9825 -8.125 18.0625 C-8.455 18.0625 -8.785 18.0625 -9.125 18.0625 C-9.125 16.4125 -9.125 14.7625 -9.125 13.0625 C-9.785 13.0625 -10.445 13.0625 -11.125 13.0625 C-11.15212066 11.62510487 -11.17145067 10.18756137 -11.1875 8.75 C-11.19910156 7.94949219 -11.21070313 7.14898437 -11.22265625 6.32421875 C-11.125 4.0625 -11.125 4.0625 -10.125 1.0625 C-6.93675432 -0.53162284 -3.49603338 -0.03924735 0 0 Z " fill="#597AAB" transform="translate(240.125,41.9375)"/>
<path d="M0 0 C1.03769531 -0.02835938 2.07539063 -0.05671875 3.14453125 -0.0859375 C7.04635837 0.50509665 8.6004912 1.3874525 11.1875 4.375 C11.64674564 7.27549875 11.80209297 9.49975828 11.6875 12.375 C11.69136719 13.44234375 11.69136719 13.44234375 11.6953125 14.53125 C11.61714697 18.72092229 11.22297433 21.39225103 8.1875 24.375 C3.61748096 26.40611957 -2.17522787 25.92075738 -6.8125 24.375 C-7.4725 24.045 -8.1325 23.715 -8.8125 23.375 C-8.8125 22.385 -8.8125 21.395 -8.8125 20.375 C-8.1525 21.035 -7.4925 21.695 -6.8125 22.375 C-3.78945692 22.73370143 -3.78945692 22.73370143 -0.375 22.6875 C0.77871094 22.70425781 1.93242187 22.72101563 3.12109375 22.73828125 C6.09990247 22.58501352 6.09990247 22.58501352 8.0859375 21.3046875 C9.80389523 18.29521545 9.46915836 15.60858703 9.375 12.1875 C9.34792969 10.91519531 9.32085937 9.64289062 9.29296875 8.33203125 C9.24076172 6.86830078 9.24076172 6.86830078 9.1875 5.375 C8.5275 5.375 7.8675 5.375 7.1875 5.375 C6.8575 9.995 6.5275 14.615 6.1875 19.375 C5.5275 19.045 4.8675 18.715 4.1875 18.375 C4.5175 14.415 4.8475 10.455 5.1875 6.375 C1.8875 6.375 -1.4125 6.375 -4.8125 6.375 C-4.8125 5.715 -4.8125 5.055 -4.8125 4.375 C-2.8325 4.375 -0.8525 4.375 1.1875 4.375 C1.1875 3.715 1.1875 3.055 1.1875 2.375 C-1.7825 2.375 -4.7525 2.375 -7.8125 2.375 C-5.14765635 -0.28984365 -3.71370172 0.04579164 0 0 Z " fill="#ADBDD5" transform="translate(214.8125,41.625)"/>
<path d="M0 0 C0.39832031 0.64324219 0.79664063 1.28648438 1.20703125 1.94921875 C3.4141049 4.47364939 4.41548836 4.50944084 7.6875 4.8125 C13.65124233 5.7495344 16.91581074 8.73327714 21 13 C20.67 13.66 20.34 14.32 20 15 C19.01 14.34 18.02 13.68 17 13 C17.639375 13.763125 18.27875 14.52625 18.9375 15.3125 C22.25029672 19.62917451 22.111189 22.88039917 22.0625 28.1875 C22.05347656 29.45980469 22.04445312 30.73210938 22.03515625 32.04296875 C22.02355469 33.01878906 22.01195312 33.99460938 22 35 C21.67 35 21.34 35 21 35 C20.91363281 34.154375 20.82726562 33.30875 20.73828125 32.4375 C19.63909314 23.56332074 17.84089121 17.27489872 11.125 11.1875 C3.55950173 5.89165121 -2.88957237 5.39729684 -12 5 C-8.79619983 2.86413322 -7.98060033 2.76867825 -4.3125 2.875 C-3.10013672 2.90207031 -3.10013672 2.90207031 -1.86328125 2.9296875 C-0.94095703 2.96449219 -0.94095703 2.96449219 0 3 C0 2.01 0 1.02 0 0 Z " fill="#E9ECF0" transform="translate(61,23)"/>
<path d="M0 0 C1.18613892 0.00785522 1.18613892 0.00785522 2.39624023 0.01586914 C3.67724609 0.02070312 3.67724609 0.02070312 4.98413086 0.02563477 C5.88196289 0.03401367 6.77979492 0.04239258 7.70483398 0.05102539 C8.6065332 0.05553711 9.50823242 0.06004883 10.43725586 0.06469727 C12.67234712 0.07652315 14.90730835 0.09300319 17.14233398 0.11352539 C17.14233398 0.44352539 17.14233398 0.77352539 17.14233398 1.11352539 C11.20233398 1.60852539 11.20233398 1.60852539 5.14233398 2.11352539 C12.07233398 2.60852539 12.07233398 2.60852539 19.14233398 3.11352539 C19.14233398 3.44352539 19.14233398 3.77352539 19.14233398 4.11352539 C12.87233398 4.11352539 6.60233398 4.11352539 0.14233398 4.11352539 C0.14233398 5.43352539 0.14233398 6.75352539 0.14233398 8.11352539 C5.75233398 8.11352539 11.36233398 8.11352539 17.14233398 8.11352539 C16.15233398 9.59852539 16.15233398 9.59852539 15.14233398 11.11352539 C12.20850062 11.36170465 9.50600714 11.4399642 6.57983398 11.36352539 C5.38970703 11.35579102 5.38970703 11.35579102 4.17553711 11.34790039 C-1.7036211 11.2675703 -1.7036211 11.2675703 -2.85766602 10.11352539 C-2.95557171 8.61614415 -2.98741466 7.11409647 -2.98266602 5.61352539 C-2.98524414 4.79883789 -2.98782227 3.98415039 -2.99047852 3.14477539 C-2.81824452 0.5106084 -2.64114422 0.16140519 0 0 Z " fill="#225094" transform="translate(47.857666015625,80.886474609375)"/>
<path d="M0 0 C1.77503906 0.03480469 1.77503906 0.03480469 3.5859375 0.0703125 C5.36871094 0.09738281 5.36871094 0.09738281 7.1875 0.125 C8.10273437 0.14820312 9.01796875 0.17140625 9.9609375 0.1953125 C9.9609375 1.1853125 9.9609375 2.1753125 9.9609375 3.1953125 C6.3309375 3.1953125 2.7009375 3.1953125 -1.0390625 3.1953125 C-1.0390625 4.5153125 -1.0390625 5.8353125 -1.0390625 7.1953125 C2.5909375 7.1953125 6.2209375 7.1953125 9.9609375 7.1953125 C9.9609375 8.5153125 9.9609375 9.8353125 9.9609375 11.1953125 C7.83621174 11.24917879 5.71110098 11.28804321 3.5859375 11.3203125 C1.81089844 11.35511719 1.81089844 11.35511719 0 11.390625 C-3.0390625 11.1953125 -3.0390625 11.1953125 -5.0390625 9.1953125 C-5.2890625 5.6953125 -5.2890625 5.6953125 -5.0390625 2.1953125 C-3.0390625 0.1953125 -3.0390625 0.1953125 0 0 Z " fill="#1A498F" transform="translate(55.0390625,95.8046875)"/>
<path d="M0 0 C6.27 0 12.54 0 19 0 C19 1.98 19 3.96 19 6 C12.73 6 6.46 6 0 6 C0 4.02 0 2.04 0 0 Z " fill="#7C96BD" transform="translate(119,42)"/>
<path d="M0 0 C5.94 0 11.88 0 18 0 C18 0.66 18 1.32 18 2 C15.69 2 13.38 2 11 2 C11 8.27 11 14.54 11 21 C9.68 21 8.36 21 7 21 C7 14.73 7 8.46 7 2 C4.69 2 2.38 2 0 2 C0 1.34 0 0.68 0 0 Z " fill="#255498" transform="translate(98,44)"/>
<path d="M0 0 C0.66 0 1.32 0 2 0 C1.67 0.928125 1.34 1.85625 1 2.8125 C0.48417027 5.98583227 1.04430698 7.07529158 2.71484375 9.9140625 C4.74261561 12.67240243 6.81932083 15.36123505 9 18 C7.68 18.33 6.36 18.66 5 19 C4.67 20.65 4.34 22.3 4 24 C3.01 23.67 2.02 23.34 1 23 C1 21.68 1 20.36 1 19 C0.34 19 -0.32 19 -1 19 C-2.4097034 16.1805932 -2.16984647 13.76732774 -2.1875 10.625 C-2.20167969 9.48289062 -2.21585938 8.34078125 -2.23046875 7.1640625 C-2.01170034 4.16063184 -1.57080637 2.52074066 0 0 Z " fill="#DC8E16" transform="translate(39,41)"/>
<path d="M0 0 C5.94 0 11.88 0 18 0 C18 1.98 18 3.96 18 6 C12.06 6 6.12 6 0 6 C0 4.02 0 2.04 0 0 Z " fill="#7591B9" transform="translate(278,42)"/>
<path d="M0 0 C0.66 0 1.32 0 2 0 C2.33868777 2.20751848 2.67071689 4.41605911 3 6.625 C3.185625 7.85476562 3.37125 9.08453125 3.5625 10.3515625 C3.95486294 13.62358912 4.07539526 16.71088182 4 20 C4 23.39593478 4.52165948 24.06619881 6.5 26.6875 C7.19609375 27.62142578 7.19609375 27.62142578 7.90625 28.57421875 C8.2671875 29.04472656 8.628125 29.51523438 9 30 C4.58556489 28.26575764 2.26070872 25.40875837 0.08203125 21.24609375 C-2.62490231 14.95533265 -3.09384295 8.4182592 -1 1.875 C-0.67 1.25625 -0.34 0.6375 0 0 Z " fill="#839DC3" transform="translate(32,43)"/>
<path d="M0 0 C3.63 0 7.26 0 11 0 C11.02686553 1.97909398 11.04633375 3.95828971 11.0625 5.9375 C11.07410156 7.03964844 11.08570313 8.14179687 11.09765625 9.27734375 C11 12 11 12 10 13 C7.98035801 13.07244053 5.95832876 13.08377188 3.9375 13.0625 C2.83277344 13.05347656 1.72804687 13.04445313 0.58984375 13.03515625 C-0.69212891 13.01775391 -0.69212891 13.01775391 -2 13 C-2 12.01 -2 11.02 -2 10 C0.97 10 3.94 10 7 10 C7 8.02 7 6.04 7 4 C4.69 4 2.38 4 0 4 C0 2.68 0 1.36 0 0 Z " fill="#315B95" transform="translate(236,52)"/>
<path d="M0 0 C2 1 4 2 6 3 C11.83312194 3.5368537 16.13031667 3.54158787 21 0 C21.99 0 22.98 0 24 0 C23.77905593 3.09321692 22.94080219 4.05759787 20.6875 6.25 C15.95262794 9.13459438 10.31266504 8.87677549 5 8 C1.75 5.6875 1.75 5.6875 0 3 C0 2.01 0 1.02 0 0 Z " fill="#374D6C" transform="translate(45,61)"/>
<path d="M0 0 C0.68359375 1.671875 0.68359375 1.671875 1 4 C-0.21484375 6.578125 -0.21484375 6.578125 -1.9375 9.25 C-2.50339844 10.14203125 -3.06929687 11.0340625 -3.65234375 11.953125 C-4.09707031 12.62859375 -4.54179688 13.3040625 -5 14 C-5.33 12.68 -5.66 11.36 -6 10 C-6.70576172 10.63228516 -6.70576172 10.63228516 -7.42578125 11.27734375 C-8.04839844 11.82519531 -8.67101562 12.37304688 -9.3125 12.9375 C-9.92738281 13.48277344 -10.54226562 14.02804688 -11.17578125 14.58984375 C-14.81635082 17.40407419 -18.37523502 17.16387239 -22.8125 17.1875 C-24.01519531 17.20167969 -25.21789062 17.21585938 -26.45703125 17.23046875 C-29.98083425 17.00124672 -32.72129528 16.27030979 -36 15 C-35.67 14.34 -35.34 13.68 -35 13 C-33.88625 13.495 -33.88625 13.495 -32.75 14 C-26.37625143 15.69966629 -19.82360376 16.22533748 -13.6875 13.5625 C-9.99502471 10.04176775 -6.98241217 6.12949377 -4 2 C-2.68 2.33 -1.36 2.66 0 3 C0 2.01 0 1.02 0 0 Z " fill="#324E75" transform="translate(80,57)"/>
<path d="M0 0 C0.99 0.66 1.98 1.32 3 2 C3.43359375 5.1171875 3.43359375 5.1171875 3.4375 8.875 C3.45683594 10.10992187 3.47617188 11.34484375 3.49609375 12.6171875 C3 16 3 16 1.26953125 18.4296875 C-1.35902907 20.24841598 -2.59790826 20.43541716 -5.75 20.25 C-6.54921875 20.21390625 -7.3484375 20.1778125 -8.171875 20.140625 C-9.07679688 20.07101563 -9.07679688 20.07101563 -10 20 C-9.505 18.515 -9.505 18.515 -9 17 C-5.04 16.505 -5.04 16.505 -1 16 C-1.01160156 15.01257812 -1.02320313 14.02515625 -1.03515625 13.0078125 C-1.04417969 11.72648437 -1.05320313 10.44515625 -1.0625 9.125 C-1.07410156 7.84882812 -1.08570313 6.57265625 -1.09765625 5.2578125 C-1 2 -1 2 0 0 Z " fill="#345B96" transform="translate(222,45)"/>
<path d="M0 0 C0.66 0.28875 1.32 0.5775 2 0.875 C9.60335722 3.72625896 16.94008797 4.4895389 25 5 C25 5.99 25 6.98 25 8 C24.40461426 8.01981934 23.80922852 8.03963867 23.19580078 8.06005859 C20.50507847 8.15516126 17.81514852 8.26489842 15.125 8.375 C14.18785156 8.4059375 13.25070313 8.436875 12.28515625 8.46875 C10.94130859 8.52675781 10.94130859 8.52675781 9.5703125 8.5859375 C8.74289551 8.6173584 7.91547852 8.6487793 7.06298828 8.68115234 C4.78013915 8.82599137 4.78013915 8.82599137 3 11 C2.83322718 14.58343976 2.83322718 14.58343976 3 18 C2.01 17.01 1.02 16.02 0 15 C0.92493788 11.21616321 1.39371171 9.43306306 4.625 7.125 C5.40875 6.75375 6.1925 6.3825 7 6 C6.4946875 5.65066406 5.989375 5.30132812 5.46875 4.94140625 C4.49421875 4.25884766 4.49421875 4.25884766 3.5 3.5625 C2.8503125 3.11003906 2.200625 2.65757813 1.53125 2.19140625 C1.0259375 1.79824219 0.520625 1.40507813 0 1 C0 0.67 0 0.34 0 0 Z " fill="#DFE6F0" transform="translate(41,73)"/>
<path d="M0 0 C0.33 0 0.66 0 1 0 C1.33 4.62 1.66 9.24 2 14 C5.63 14 9.26 14 13 14 C13 14.99 13 15.98 13 17 C10.73020335 17.10794277 8.45894804 17.18556176 6.1875 17.25 C4.92292969 17.29640625 3.65835938 17.3428125 2.35546875 17.390625 C-1 17 -1 17 -2.9375 15.21875 C-4.43110085 12.09975998 -4.1964639 9.40537419 -4 6 C-3.01 6.495 -3.01 6.495 -2 7 C-1.34 4.69 -0.68 2.38 0 0 Z " fill="#6381AC" transform="translate(144,48)"/>
<path d="M0 0 C1.32 0 2.64 0 4 0 C4 2.97 4 5.94 4 9 C7.63 9 11.26 9 15 9 C15 9.33 15 9.66 15 10 C10.71 10 6.42 10 2 10 C2.99 11.485 2.99 11.485 4 13 C4.1953125 15.26171875 4.1953125 15.26171875 4.125 17.6875 C4.10695312 18.49574219 4.08890625 19.30398437 4.0703125 20.13671875 C4.03550781 21.05904297 4.03550781 21.05904297 4 22 C2.68 22 1.36 22 0 22 C0 14.74 0 7.48 0 0 Z " fill="#3A619A" transform="translate(160,43)"/>
<path d="M0 0 C0.99 0 1.98 0 3 0 C3 7.26 3 14.52 3 22 C1.35 22 -0.3 22 -2 22 C-2.66 20.35 -3.32 18.7 -4 17 C-3.34 16.34 -2.68 15.68 -2 15 C-1.67 15.33 -1.34 15.66 -1 16 C-0.67 10.72 -0.34 5.44 0 0 Z " fill="#124389" transform="translate(198,43)"/>
<path d="M0 0 C0.66 0.33 1.32 0.66 2 1 C2.36923077 8.38461538 2.36923077 8.38461538 0.5 11.5 C0.005 11.995 -0.49 12.49 -1 13 C-0.34 14.32 0.32 15.64 1 17 C0.42926758 16.67854004 -0.14146484 16.35708008 -0.72949219 16.02587891 C-3.10556758 14.95230161 -4.74114872 14.69680791 -7.328125 14.5859375 C-8.12734375 14.54726562 -8.9265625 14.50859375 -9.75 14.46875 C-10.575 14.4378125 -11.4 14.406875 -12.25 14.375 C-13.09046875 14.33632812 -13.9309375 14.29765625 -14.796875 14.2578125 C-16.86423382 14.16384164 -18.93208627 14.08084436 -21 14 C-21 13.01 -21 12.02 -21 11 C-20.15236084 10.970271 -20.15236084 10.970271 -19.28759766 10.93994141 C-16.73292003 10.84481764 -14.17907459 10.73508942 -11.625 10.625 C-10.29082031 10.57859375 -10.29082031 10.57859375 -8.9296875 10.53125 C-8.07890625 10.49257812 -7.228125 10.45390625 -6.3515625 10.4140625 C-5.56604004 10.3826416 -4.78051758 10.3512207 -3.97119141 10.31884766 C-1.76997061 10.1600535 -1.76997061 10.1600535 0 8 C0.24212873 6.01871492 0.24212873 6.01871492 0.125 3.875 C0.08375 2.59625 0.0425 1.3175 0 0 Z " fill="#D5DEEC" transform="translate(69,74)"/>
<path d="M0 0 C1.2065625 0.0309375 1.2065625 0.0309375 2.4375 0.0625 C2.7675 1.0525 3.0975 2.0425 3.4375 3.0625 C2.4475 3.3925 1.4575 3.7225 0.4375 4.0625 C0.1075 10.0025 -0.2225 15.9425 -0.5625 22.0625 C-1.5525 22.0625 -2.5425 22.0625 -3.5625 22.0625 C-3.59137814 18.58335059 -3.60925687 15.10423169 -3.625 11.625 C-3.63337891 10.63177734 -3.64175781 9.63855469 -3.65039062 8.61523438 C-3.65361328 7.67099609 -3.65683594 6.72675781 -3.66015625 5.75390625 C-3.66539307 4.87935791 -3.67062988 4.00480957 -3.67602539 3.10375977 C-3.50444536 0.01864008 -3.10895855 0.07582826 0 0 Z " fill="#184789" transform="translate(185.5625,42.9375)"/>
<path d="M0 0 C0.33 0 0.66 0 1 0 C1.33 1.98 1.66 3.96 2 6 C2.66 5.01 3.32 4.02 4 3 C4.33 4.32 4.66 5.64 5 7 C8.63 7.33 12.26 7.66 16 8 C16 9.32 16 10.64 16 12 C11.71 12 7.42 12 3 12 C3 11.34 3 10.68 3 10 C2.01 9.67 1.02 9.34 0 9 C0 6.03 0 3.06 0 0 Z " fill="#275391" transform="translate(120,53)"/>
<path d="M0 0 C5.61 0 11.22 0 17 0 C16.67 2.64 16.34 5.28 16 8 C15.34 6.68 14.68 5.36 14 4 C9.38 4 4.76 4 0 4 C0 2.68 0 1.36 0 0 Z " fill="#265394" transform="translate(258,43)"/>
<path d="M0 0 C1.4540625 0.0309375 1.4540625 0.0309375 2.9375 0.0625 C2.9375 0.3925 2.9375 0.7225 2.9375 1.0625 C1.2875 1.3925 -0.3625 1.7225 -2.0625 2.0625 C-2.3925 8.9925 -2.7225 15.9225 -3.0625 23.0625 C-2.0725 23.0625 -1.0825 23.0625 -0.0625 23.0625 C-0.0625 17.4525 -0.0625 11.8425 -0.0625 6.0625 C0.5975 6.0625 1.2575 6.0625 1.9375 6.0625 C3.00525224 8.02716413 4.00303465 10.03105359 4.9375 12.0625 C4.6075 12.7225 4.2775 13.3825 3.9375 14.0625 C3.2775 13.0725 2.6175 12.0825 1.9375 11.0625 C1.6075 15.3525 1.2775 19.6425 0.9375 24.0625 C-0.3825 24.3925 -1.7025 24.7225 -3.0625 25.0625 C-4.74766954 23.37733046 -4.19258019 21.27482212 -4.1953125 18.96875 C-4.19724609 17.42380859 -4.19724609 17.42380859 -4.19921875 15.84765625 C-4.19535156 14.76355469 -4.19148437 13.67945313 -4.1875 12.5625 C-4.19136719 11.47839844 -4.19523438 10.39429688 -4.19921875 9.27734375 C-4.19792969 8.24738281 -4.19664062 7.21742187 -4.1953125 6.15625 C-4.19418457 5.20427734 -4.19305664 4.25230469 -4.19189453 3.27148438 C-3.98858471 -0.19935944 -3.55454222 0.07254168 0 0 Z " fill="#D3DAE3" transform="translate(185.0625,41.9375)"/>
<path d="M0 0 C3.02525785 3.02525785 3.26502131 6.00112404 3.5 10.125 C3.49053863 17.23995195 -0.16709036 21.16709036 -5 26 C-6.66617115 26.04063832 -8.33388095 26.042721 -10 26 C-8.25 22.125 -8.25 22.125 -6 21 C-5.34 20.01 -4.68 19.02 -4 18 C-3.67 18.66 -3.34 19.32 -3 20 C-2.67 19.34 -2.34 18.68 -2 18 C-1.34 18 -0.68 18 0 18 C0 16.68 0 15.36 0 14 C0.66 14 1.32 14 2 14 C1.855625 13.32453125 1.71125 12.6490625 1.5625 11.953125 C1.376875 11.06109375 1.19125 10.1690625 1 9.25 C0.814375 8.36828125 0.62875 7.4865625 0.4375 6.578125 C0 4 0 4 0 0 Z " fill="#D19D46" transform="translate(74,43)"/>
<path d="M0 0 C0.99 0.33 1.98 0.66 3 1 C5.05893621 1.22325814 7.12233653 1.40705759 9.1875 1.5625 C10.27417969 1.64628906 11.36085938 1.73007812 12.48046875 1.81640625 C13.72763672 1.90728516 13.72763672 1.90728516 15 2 C15 3.32 15 4.64 15 6 C12.68756208 6.02685412 10.3750373 6.04632841 8.0625 6.0625 C6.77472656 6.07410156 5.48695313 6.08570312 4.16015625 6.09765625 C1 6 1 6 0 5 C-0.04063832 3.33382885 -0.042721 1.66611905 0 0 Z " fill="#15468C" transform="translate(280,59)"/>
<path d="M0 0 C0.66 0 1.32 0 2 0 C2.33 1.32 2.66 2.64 3 4 C3.66 4 4.32 4 5 4 C5 6.64 5 9.28 5 12 C4.34 12 3.68 12 3 12 C3 12.99 3 13.98 3 15 C2.01 14.67 1.02 14.34 0 14 C0 9.38 0 4.76 0 0 Z " fill="#1A478B" transform="translate(77,45)"/>
<path d="M0 0 C2.97 0 5.94 0 9 0 C9 0.66 9 1.32 9 2 C7.02 2 5.04 2 3 2 C2.67 6.62 2.34 11.24 2 16 C1.01 15.34 0.02 14.68 -1 14 C-1.328125 11.25 -1.328125 11.25 -1.25 8 C-1.23453125 6.9275 -1.2190625 5.855 -1.203125 4.75 C-1 2 -1 2 0 0 Z " fill="#124384" transform="translate(207,44)"/>
<path d="M0 0 C0.99 0 1.98 0 3 0 C3 5.94 3 11.88 3 18 C2.01 18 1.02 18 0 18 C0 12.06 0 6.12 0 0 Z " fill="#134080" transform="translate(105,47)"/>
<path d="M0 0 C0.99 0.33 1.98 0.66 3 1 C3 4 3 4 1.9375 5.5 C-0.82895613 7.64177249 -3.74902024 8.71187594 -7 10 C-7 9.34 -7 8.68 -7 8 C-7.99 8.33 -8.98 8.66 -10 9 C-10 8.34 -10 7.68 -10 7 C-8.03501678 5.61558 -6.02951535 4.28796166 -4 3 C-3.278125 2.401875 -2.55625 1.80375 -1.8125 1.1875 C-1.214375 0.795625 -0.61625 0.40375 0 0 Z " fill="#245091" transform="translate(268,50)"/>
<path d="M0 0 C0.33 0.99 0.66 1.98 1 3 C-0.32 3.33 -1.64 3.66 -3 4 C-2.67 5.98 -2.34 7.96 -2 10 C-2.66 9.01 -3.32 8.02 -4 7 C-6.6556728 6.41651248 -6.6556728 6.41651248 -9.625 6.3125 C-10.62789062 6.24675781 -11.63078125 6.18101563 -12.6640625 6.11328125 C-13.43492188 6.07589844 -14.20578125 6.03851563 -15 6 C-15 5.01 -15 4.02 -15 3 C-13.62714844 2.92652344 -13.62714844 2.92652344 -12.2265625 2.8515625 C-11.03804687 2.77679688 -9.84953125 2.70203125 -8.625 2.625 C-7.44164062 2.55539063 -6.25828125 2.48578125 -5.0390625 2.4140625 C-1.89437681 2.29782654 -1.89437681 2.29782654 0 0 Z " fill="#E8EDF4" transform="translate(69,97)"/>
<path d="M0 0 C-0.99 0.33 -1.98 0.66 -3 1 C-1.68 1.33 -0.36 1.66 1 2 C1 3.65 1 5.3 1 7 C-5.435 7.495 -5.435 7.495 -12 8 C-8.79619983 5.86413322 -7.98060033 5.76867825 -4.3125 5.875 C-3.10013672 5.90207031 -3.10013672 5.90207031 -1.86328125 5.9296875 C-0.94095703 5.96449219 -0.94095703 5.96449219 0 6 C0 5.01 0 4.02 0 3 C-7.04207705 3.7187807 -7.04207705 3.7187807 -14 5 C-10.69595986 0.91853865 -5.12984719 -2.25713276 0 0 Z " fill="#A0B5D3" transform="translate(60,19)"/>
<path d="M0 0 C5.28 0 10.56 0 16 0 C15.01 1.485 15.01 1.485 14 3 C11.37302936 3.22137393 8.99106036 3.28162025 6.375 3.1875 C5.66859375 3.17396484 4.9621875 3.16042969 4.234375 3.14648438 C2.48925872 3.1111104 0.74453392 3.05730221 -1 3 C-0.67 2.01 -0.34 1.02 0 0 Z " fill="#0C428D" transform="translate(49,89)"/>
<path d="M0 0 C1.32 0 2.64 0 4 0 C4 7.26 4 14.52 4 22 C3.67 22 3.34 22 3 22 C3 17.38 3 12.76 3 8 C2.01 8.33 1.02 8.66 0 9 C0 6.03 0 3.06 0 0 Z " fill="#466A9E" transform="translate(175,43)"/>
<path d="M0 0 C0.99 0 1.98 0 3 0 C3.25 2.8125 3.25 2.8125 3 6 C0.61831539 8.5217837 -0.75301753 8.9776284 -4.234375 9.29296875 C-5.39453125 9.25816406 -6.5546875 9.22335938 -7.75 9.1875 C-8.92046875 9.16042969 -10.0909375 9.13335937 -11.296875 9.10546875 C-12.18890625 9.07066406 -13.0809375 9.03585938 -14 9 C-14 8.67 -14 8.34 -14 8 C-10.37 8 -6.74 8 -3 8 C-3 6.68 -3 5.36 -3 4 C-2.34 4 -1.68 4 -1 4 C-0.67 2.68 -0.34 1.36 0 0 Z " fill="#486DA3" transform="translate(68,91)"/>
<path d="M0 0 C0.66 0 1.32 0 2 0 C2.185625 0.9590625 2.185625 0.9590625 2.375 1.9375 C2.684375 2.9584375 2.684375 2.9584375 3 4 C3.66 4.33 4.32 4.66 5 5 C5.33 3.35 5.66 1.7 6 0 C8.375 0.3125 8.375 0.3125 11 1 C11.66 1.99 12.32 2.98 13 4 C11 3 9 2 7 1 C7.66 2.65 8.32 4.3 9 6 C8.01 6 7.02 6 6 6 C6.99 7.65 7.98 9.3 9 11 C5.62169447 9.55215477 3.35038972 7.83667724 1 5 C0.25 2.25 0.25 2.25 0 0 Z " fill="#9E7A3F" transform="translate(38,60)"/>
<path d="M0 0 C4.31664136 3.26146236 7.10396696 5.75802629 9 11 C8.6875 13.375 8.6875 13.375 8 15 C7.67 13.68 7.34 12.36 7 11 C6.34 11 5.68 11 5 11 C4.67 11.99 4.34 12.98 4 14 C3.34 11.69 2.68 9.38 2 7 C2.66 7 3.32 7 4 7 C4 6.34 4 5.68 4 5 C3.01 4.67 2.02 4.34 1 4 C0.3125 1.9375 0.3125 1.9375 0 0 Z " fill="#295088" transform="translate(72,34)"/>
<path d="M0 0 C0.99 0 1.98 0 3 0 C2 6 1 12 0 18 C-0.33 18 -0.66 18 -1 18 C-1.22181406 15.56304285 -1.42791119 13.126474 -1.625 10.6875 C-1.68945312 9.99720703 -1.75390625 9.30691406 -1.8203125 8.59570312 C-2.11802847 4.7440028 -2.20763723 3.31145584 0 0 Z " fill="#17417F" transform="translate(36,39)"/>
<path d="M0 0 C4.62 0 9.24 0 14 0 C14 3.3 14 6.6 14 10 C13.01 10 12.02 10 11 10 C11 7.03 11 4.06 11 1 C7.37 1 3.74 1 0 1 C0 0.67 0 0.34 0 0 Z " fill="#154081" transform="translate(164,55)"/>
<path d="M0 0 C-0.7734375 0.37125 -0.7734375 0.37125 -1.5625 0.75 C-5.8454728 2.94639631 -9.99307481 5.32871654 -14 8 C-14.66 7.34 -15.32 6.68 -16 6 C-14.70982586 5.01886757 -13.41780894 4.04015801 -12.125 3.0625 C-11.04605469 2.24458984 -11.04605469 2.24458984 -9.9453125 1.41015625 C-6.23862945 -1.27681681 -4.44786143 -0.87023376 0 0 Z " fill="#D5DEEB" transform="translate(52,28)"/>
<path d="M0 0 C0 0.99 0 1.98 0 3 C-3.96 3 -7.92 3 -12 3 C-12 2.01 -12 1.02 -12 0 C-10.56359829 -0.19573608 -9.12580496 -0.38127816 -7.6875 -0.5625 C-6.88699219 -0.66691406 -6.08648437 -0.77132812 -5.26171875 -0.87890625 C-3 -1 -3 -1 0 0 Z " fill="#12428B" transform="translate(246,62)"/>
<path d="M0 0 C4.29 0 8.58 0 13 0 C13 0.99 13 1.98 13 3 C9.04 3 5.08 3 1 3 C0.67 2.01 0.34 1.02 0 0 Z " fill="#0E4189" transform="translate(144,62)"/>
<path d="M0 0 C-0.125 1.8125 -0.125 1.8125 -1 4 C-4.0625 5.75 -4.0625 5.75 -7 7 C-7 6.34 -7 5.68 -7 5 C-9.97 5 -12.94 5 -16 5 C-16 4.67 -16 4.34 -16 4 C-15.31292969 3.87882812 -14.62585937 3.75765625 -13.91796875 3.6328125 C-12.56638672 3.38144531 -12.56638672 3.38144531 -11.1875 3.125 C-10.29417969 2.96257813 -9.40085937 2.80015625 -8.48046875 2.6328125 C-5.10344716 1.77127313 -3.59713763 0 0 0 Z " fill="#4D5761" transform="translate(69,61)"/>
<path d="M0 0 C1.60407328 -0.02708567 3.2082785 -0.04643483 4.8125 -0.0625 C5.70582031 -0.07410156 6.59914063 -0.08570312 7.51953125 -0.09765625 C10 0 10 0 13 1 C13 2.32 13 3.64 13 5 C11.68 5 10.36 5 9 5 C9 4.34 9 3.68 9 3 C8.071875 3.061875 7.14375 3.12375 6.1875 3.1875 C3 3 3 3 1.30078125 1.48828125 C0.87152344 0.99714844 0.44226562 0.50601562 0 0 Z " fill="#2B5796" transform="translate(52,28)"/>
<path d="M0 0 C0.33 0 0.66 0 1 0 C1.33 3.96 1.66 7.92 2 12 C4.64 12.33 7.28 12.66 10 13 C6.57653445 16.14958831 3.55737263 16.56179109 -1 17 C-0.34 16.67 0.32 16.34 1 16 C0.67 15.34 0.34 14.68 0 14 C-0.07116382 11.62597499 -0.08409085 9.24999323 -0.0625 6.875 C-0.05347656 5.59367187 -0.04445312 4.31234375 -0.03515625 2.9921875 C-0.02355469 2.00476562 -0.01195312 1.01734375 0 0 Z " fill="#869EC2" transform="translate(209,48)"/>
<path d="M0 0 C0.33 0 0.66 0 1 0 C1.33 3.96 1.66 7.92 2 12 C4.97 12.33 7.94 12.66 11 13 C11 13.33 11 13.66 11 14 C8.03 14 5.06 14 2 14 C2 14.99 2 15.98 2 17 C0.0625 16.625 0.0625 16.625 -2 16 C-2.33 15.34 -2.66 14.68 -3 14 C-2.01 14 -1.02 14 0 14 C0 9.38 0 4.76 0 0 Z " fill="#90A4C5" transform="translate(232,48)"/>
<path d="M0 0 C2.64 0 5.28 0 8 0 C8 1.32 8 2.64 8 4 C5.03 4 2.06 4 -1 4 C-1.33 3.34 -1.66 2.68 -2 2 C-1.34 2 -0.68 2 0 2 C0 1.34 0 0.68 0 0 Z " fill="#0E448A" transform="translate(128,61)"/>
<path d="M0 0 C1.07765625 0.01804688 2.1553125 0.03609375 3.265625 0.0546875 C4.49539062 0.08949219 4.49539062 0.08949219 5.75 0.125 C5.75 0.455 5.75 0.785 5.75 1.125 C4.079375 1.24875 4.079375 1.24875 2.375 1.375 C-2.12321391 1.91221984 -5.92668952 3.46589443 -10.05078125 5.28515625 C-12.25 6.125 -12.25 6.125 -15.25 6.125 C-9.96084299 1.71736916 -6.97722069 -0.15167871 0 0 Z " fill="#BD954F" transform="translate(56.25,32.875)"/>
<path d="M0 0 C8.91 0 17.82 0 27 0 C26.01 1.65 25.02 3.3 24 5 C23.67 3.68 23.34 2.36 23 1 C15.41 1 7.82 1 0 1 C0 0.67 0 0.34 0 0 Z " fill="#5477A8" transform="translate(38,11)"/>
<path d="M0 0 C0.33 0 0.66 0 1 0 C1.13277344 0.89203125 1.26554687 1.7840625 1.40234375 2.703125 C1.57894531 3.87359375 1.75554688 5.0440625 1.9375 6.25 C2.11152344 7.41015625 2.28554688 8.5703125 2.46484375 9.765625 C2.8727736 12.23106961 3.33901303 14.59424562 4 17 C2.35 17 0.7 17 -1 17 C-1.33 16.01 -1.66 15.02 -2 14 C-1.34 14 -0.68 14 0 14 C0 9.38 0 4.76 0 0 Z " fill="#384D6E" transform="translate(36,49)"/>
<path d="M0 0 C0.33 0 0.66 0 1 0 C1 6.6 1 13.2 1 20 C-0.98 20.99 -0.98 20.99 -3 22 C-2.85892253 20.54119891 -2.71197585 19.08296449 -2.5625 17.625 C-2.48128906 16.81289063 -2.40007812 16.00078125 -2.31640625 15.1640625 C-2 13 -2 13 -1 11 C-0.7724985 9.12943209 -0.59037189 7.25314042 -0.4375 5.375 C-0.31181641 3.87066406 -0.31181641 3.87066406 -0.18359375 2.3359375 C-0.12300781 1.56507812 -0.06242187 0.79421875 0 0 Z " fill="#EFDBB1" transform="translate(83,46)"/>
<path d="M0 0 C1.65 0 3.3 0 5 0 C5 0.33 5 0.66 5 1 C6.65 1.33 8.3 1.66 10 2 C10 2.66 10 3.32 10 4 C3.565 4.495 3.565 4.495 -3 5 C-2.67 4.34 -2.34 3.68 -2 3 C-1.34 3 -0.68 3 0 3 C0 2.01 0 1.02 0 0 Z " fill="#224979" transform="translate(51,29)"/>
<path d="M0 0 C5.75 1.75 5.75 1.75 8 4 C8 4.99 8 5.98 8 7 C4.84859577 6.65930765 3.39218439 6.41923159 1.1875 4.0625 C0 2 0 2 0 0 Z " fill="#194888" transform="translate(36,65)"/>
<path d="M0 0 C0.66 1.32 1.32 2.64 2 4 C-0.40545638 5.20272819 -1.94996953 5.10071472 -4.625 5.0625 C-5.85089844 5.04896484 -5.85089844 5.04896484 -7.1015625 5.03515625 C-8.04128906 5.01775391 -8.04128906 5.01775391 -9 5 C-8.67 4.01 -8.34 3.02 -8 2 C-6.15234375 1.26953125 -6.15234375 1.26953125 -3.9375 0.8125 C-3.20402344 0.65394531 -2.47054687 0.49539062 -1.71484375 0.33203125 C-1.14894531 0.22246094 -0.58304688 0.11289062 0 0 Z " fill="#134389" transform="translate(221,60)"/>
<path d="M0 0 C0.80050781 0.03480469 1.60101563 0.06960937 2.42578125 0.10546875 C3.63814453 0.14607422 3.63814453 0.14607422 4.875 0.1875 C5.48988281 0.22230469 6.10476563 0.25710937 6.73828125 0.29296875 C6.73828125 1.28296875 6.73828125 2.27296875 6.73828125 3.29296875 C2.77828125 3.29296875 -1.18171875 3.29296875 -5.26171875 3.29296875 C-2.26171875 0.29296875 -2.26171875 0.29296875 0 0 Z " fill="#143F7D" transform="translate(288.26171875,52.70703125)"/>
<path d="M0 0 C3 2 3 2 3.6875 4.625 C3.790625 5.40875 3.89375 6.1925 4 7 C3.34 7 2.68 7 2 7 C1.67 8.32 1.34 9.64 1 11 C0.71125 10.030625 0.4225 9.06125 0.125 8.0625 C-0.64214682 4.89335797 -0.64214682 4.89335797 -3 4 C-2.01 3.34 -1.02 2.68 0 2 C0 1.34 0 0.68 0 0 Z " fill="#4E75A6" transform="translate(188,43)"/>
<path d="M0 0 C3 3.875 3 3.875 3 5 C-1.95 5 -6.9 5 -12 5 C-8.79619983 2.86413322 -7.98060033 2.76867825 -4.3125 2.875 C-3.10013672 2.90207031 -3.10013672 2.90207031 -1.86328125 2.9296875 C-0.94095703 2.96449219 -0.94095703 2.96449219 0 3 C0 2.01 0 1.02 0 0 Z " fill="#F5F7FB" transform="translate(61,23)"/>
<path d="M0 0 C0.66 0 1.32 0 2 0 C3.06775224 1.96466413 4.06553465 3.96855359 5 6 C4.67 6.66 4.34 7.32 4 8 C3.34 7.01 2.68 6.02 2 5 C1.67 8.96 1.34 12.92 1 17 C0.67 17 0.34 17 0 17 C0 11.39 0 5.78 0 0 Z " fill="#9CB1CE" transform="translate(185,48)"/>
<path d="M0 0 C0.66 0.33 1.32 0.66 2 1 C-2.33333333 5.33333333 -6.66666667 9.66666667 -11 14 C-11 11 -11 11 -8.8125 8.625 C-7.884375 7.75875 -6.95625 6.8925 -6 6 C-5.0925 5.0925 -4.185 4.185 -3.25 3.25 C-1.625 1.625 -1.625 1.625 0 0 Z " fill="#CAD4E3" transform="translate(34,14)"/>
<path d="M0 0 C4.875 4.75 4.875 4.75 6 7 C4.35 7.33 2.7 7.66 1 8 C1 7.01 1 6.02 1 5 C0.34 5 -0.32 5 -1 5 C-0.67 3.35 -0.34 1.7 0 0 Z " fill="#E19013" transform="translate(42,53)"/>
<path d="M0 0 C0.66 0.33 1.32 0.66 2 1 C2 4.3 2 7.6 2 11 C1.01 11.495 1.01 11.495 0 12 C-0.19477739 10.37585622 -0.38059458 8.75063577 -0.5625 7.125 C-0.66691406 6.22007813 -0.77132812 5.31515625 -0.87890625 4.3828125 C-1 2 -1 2 0 0 Z " fill="#0F4187" transform="translate(222,45)"/>
<path d="M0 0 C0.66 0 1.32 0 2 0 C1.67 1.98 1.34 3.96 1 6 C0.34 6 -0.32 6 -1 6 C-1 9.63 -1 13.26 -1 17 C-1.33 17 -1.66 17 -2 17 C-2.05418326 14.91695462 -2.09287551 12.83350232 -2.125 10.75 C-2.14820313 9.58984375 -2.17140625 8.4296875 -2.1953125 7.234375 C-2.0103949 4.17213954 -1.60823023 2.55797249 0 0 Z " fill="#AD884B" transform="translate(39,41)"/>
<path d="M0 0 C0.66 0 1.32 0 2 0 C1.67 0.99 1.34 1.98 1 3 C1.99 3.33 2.98 3.66 4 4 C4 5.98 4 7.96 4 10 C3.67 8.68 3.34 7.36 3 6 C1.35 5.67 -0.3 5.34 -2 5 C-1.125 1.125 -1.125 1.125 0 0 Z " fill="#E0E6EE" transform="translate(20,27)"/>
<path d="M0 0 C2.475 0.99 2.475 0.99 5 2 C3.625 3.5 3.625 3.5 2 5 C1.34 5 0.68 5 0 5 C0 4.34 0 3.68 0 3 C-2.64 3 -5.28 3 -8 3 C-8 2.67 -8 2.34 -8 2 C-6.865625 1.855625 -5.73125 1.71125 -4.5625 1.5625 C-1.19222799 1.38828522 -1.19222799 1.38828522 0 0 Z " fill="#C4913E" transform="translate(63,67)"/>
<path d="M0 0 C0 0.99 0 1.98 0 3 C-3 5 -3 5 -6 5 C-6.33 4.01 -6.66 3.02 -7 2 C-4.35261084 0.5393715 -3.10551666 0 0 0 Z " fill="#275698" transform="translate(51,29)"/>
<path d="M0 0 C0.33 0 0.66 0 1 0 C0.25 6.625 0.25 6.625 -2 10 C-2.99 9.67 -3.98 9.34 -5 9 C-3.35 6.03 -1.7 3.06 0 0 Z " fill="#DBDFE1" transform="translate(81,59)"/>
<path d="M0 0 C3.87132028 0.57352893 6.08172796 2.48704352 9 5 C8.67 5.66 8.34 6.32 8 7 C7.401875 6.505 6.80375 6.01 6.1875 5.5 C4.02970006 3.71723582 4.02970006 3.71723582 1 4 C0.67 2.68 0.34 1.36 0 0 Z " fill="#F9F2E6" transform="translate(73,31)"/>
<path d="M0 0 C1.98 0 3.96 0 6 0 C6 0.99 6 1.98 6 3 C3.36 3 0.72 3 -2 3 C-1.34 2.67 -0.68 2.34 0 2 C0 1.34 0 0.68 0 0 Z " fill="#0E4089" transform="translate(58,104)"/>
<path d="M0 0 C1.4540625 0.0309375 1.4540625 0.0309375 2.9375 0.0625 C2.9375 1.0525 2.9375 2.0425 2.9375 3.0625 C0.9575 3.7225 -1.0225 4.3825 -3.0625 5.0625 C-3.625 3.125 -3.625 3.125 -4.0625 1.0625 C-3.0625 0.0625 -3.0625 0.0625 0 0 Z " fill="#225094" transform="translate(48.0625,22.9375)"/>
<path d="M0 0 C2.46800047 1.15173355 4.04783565 2.04783565 6 4 C5.34 4 4.68 4 4 4 C4 4.66 4 5.32 4 6 C3.34 6 2.68 6 2 6 C0 3 0 3 0 0 Z " fill="#384861" transform="translate(45,61)"/>
<path d="M0 0 C0.66 0.33 1.32 0.66 2 1 C1.2884375 1.5878125 1.2884375 1.5878125 0.5625 2.1875 C-1.35179633 4.40808374 -1.61266988 6.13375709 -2 9 C-2.33 8.34 -2.66 7.68 -3 7 C-3.66 7 -4.32 7 -5 7 C-3.70700306 4.11562221 -2.34058637 2.12780579 0 0 Z " fill="#2B5495" transform="translate(42,32)"/>
<path d="M0 0 C0.66 0 1.32 0 2 0 C2 1.98 2 3.96 2 6 C1.01 6 0.02 6 -1 6 C-1.042721 4.33388095 -1.04063832 2.66617115 -1 1 C-0.67 0.67 -0.34 0.34 0 0 Z " fill="#0C418C" transform="translate(259,58)"/>
</svg>
