<svg version="1.1" id="Layer_1" xmlns="http://www.w3.org/2000/svg" xmlns:xlink="http://www.w3.org/1999/xlink" x="0px" y="0px"
	 width="100%" viewBox="0 0 336 121" enable-background="new 0 0 336 121" xml:space="preserve">
<path fill="#FDFEFE" opacity="1.000000" stroke="none" 
	d="
M221.000000,122.000000 
	C148.666687,122.000000 76.833313,121.968826 5.000223,122.096359 
	C1.575798,122.102440 0.887068,121.426041 0.901288,117.999641 
	C1.058294,80.166977 1.043676,42.333256 0.915971,4.500364 
	C0.905901,1.517001 1.517753,0.915879 4.499990,0.918512 
	C114.166550,1.015341 223.833221,1.015327 333.499786,0.918566 
	C336.481323,0.915935 337.094086,1.516098 337.084076,4.500120 
	C336.956482,42.499683 336.956543,80.499962 337.084015,118.499527 
	C337.093994,121.482582 336.484039,122.094406 333.499908,122.084137 
	C296.166931,121.955711 258.833405,122.000000 221.000000,122.000000 
z"/>
<path fill="#234E8C" opacity="1.000000" stroke="none" 
	d="
M46.889801,31.074070 
	C55.991852,28.184414 64.487389,28.088997 72.704430,33.864101 
	C86.090332,41.159958 88.187744,62.625584 76.303688,71.644173 
	C72.991386,73.774734 69.495010,74.978760 71.062607,80.295837 
	C72.157280,84.008804 68.832642,86.251053 64.906723,86.330948 
	C60.409348,86.422462 55.908783,86.347183 51.410130,86.394569 
	C50.456493,86.404617 49.222099,86.407471 49.164162,87.727188 
	C49.100956,89.166817 50.385582,89.066574 51.328999,89.076523 
	C55.494431,89.120430 59.662693,89.021362 63.825748,89.131805 
	C68.626686,89.259178 71.472275,91.679787 71.133987,95.410683 
	C70.728188,99.886131 67.682068,101.047745 63.713074,100.933800 
	C61.384434,100.866943 59.050133,100.932289 56.720348,101.003059 
	C55.823723,101.030296 55.015102,101.518684 55.034286,102.470474 
	C55.053497,103.424004 55.880039,103.847801 56.780495,103.867599 
	C59.111908,103.918861 61.444843,103.898926 63.776424,103.945114 
	C65.204308,103.973389 66.598518,104.383949 66.686386,106.019913 
	C66.781509,107.790916 65.301201,108.095032 63.910229,108.111412 
	C61.078636,108.144768 58.234653,108.244980 55.416794,108.035263 
	C52.073822,107.786461 50.270199,105.771271 50.336418,102.416122 
	C50.401112,99.138298 52.164707,97.032333 55.474144,96.740875 
	C58.286736,96.493179 61.135933,96.686806 63.966526,96.603424 
	C64.914871,96.575485 66.146484,96.531311 66.176071,95.203835 
	C66.208115,93.766006 64.922562,93.897446 63.995235,93.884956 
	C59.996582,93.831100 55.996964,93.854347 51.997791,93.832283 
	C47.967957,93.810043 44.564678,92.833412 44.313564,87.972466 
	C44.116558,84.158958 46.752754,82.112869 51.802620,82.002357 
	C54.800732,81.936752 57.813244,82.143112 60.796497,81.921059 
	C62.771095,81.774078 66.313904,83.142319 66.327896,80.503044 
	C66.342896,77.672478 62.877861,79.164383 60.938263,79.119431 
	C58.441772,79.061584 55.969383,79.152214 53.486217,78.646439 
	C42.980270,76.506599 35.982655,70.268784 33.585007,59.953838 
	C31.101587,49.269909 34.303322,40.050491 43.234184,33.184261 
	C43.627369,32.881973 43.962357,32.503990 44.650864,32.050747 
	C45.444569,31.523563 45.918636,31.119055 46.889801,31.074070 
z"/>
<path fill="#144791" opacity="1.000000" stroke="none" 
	d="
M59.763657,12.282531 
	C61.070923,12.097859 62.125267,12.056364 63.573910,12.056553 
	C64.363922,12.491467 64.568993,12.966957 64.488876,13.913914 
	C64.394058,14.303234 64.276566,14.254485 64.307953,14.309803 
	C63.866562,14.280117 63.496525,14.445231 63.431236,15.081296 
	C63.647083,15.335807 63.550056,15.434734 63.513634,15.493671 
	C62.369492,15.124270 62.597942,16.100889 62.251801,16.916252 
	C62.107590,17.523939 61.994080,17.775988 61.611301,18.099960 
	C60.980164,18.225262 60.602852,18.396072 60.249180,19.071028 
	C58.573032,19.751778 56.961090,20.111605 54.993389,20.476711 
	C54.221241,20.235765 53.818600,20.244488 53.223324,20.811762 
	C51.919579,21.690580 50.824326,22.304680 49.422859,22.992079 
	C48.573116,23.457447 48.171795,23.907284 48.749619,24.784889 
	C50.984325,24.242155 52.900215,23.336687 54.916759,22.928471 
	C57.605961,22.384079 60.665672,21.521957 61.236908,25.804863 
	C57.309586,28.226620 51.907841,25.775431 47.399963,28.959389 
	C46.543419,29.490328 46.074440,29.912302 45.109703,29.969093 
	C40.642841,31.971066 36.947418,34.541458 34.502785,39.255039 
	C33.307610,36.954018 32.406525,35.219200 31.246532,33.262325 
	C29.622009,32.073933 28.153366,32.620106 26.695755,32.697002 
	C24.596104,32.807774 23.062777,32.193829 23.571720,29.161860 
	C23.626392,28.714975 23.740496,28.780823 23.712654,28.721127 
	C24.099234,28.742588 24.440338,28.627153 24.676048,27.988037 
	C24.655542,27.691973 24.870953,28.018408 24.774052,27.848919 
	C25.118959,27.739489 25.466124,27.593641 25.738491,26.897579 
	C26.542995,25.746031 27.312033,24.904804 28.330416,23.922817 
	C29.009155,23.770948 29.378429,23.620470 29.669159,22.996605 
	C29.660345,22.684872 29.967257,22.887348 29.823944,22.772163 
	C30.098083,22.741894 30.441925,22.627649 30.672470,21.982548 
	C30.645308,21.684736 30.845308,21.898462 30.764748,21.776276 
	C31.099146,21.740915 31.441113,21.628450 31.677513,20.986107 
	C31.657333,20.689352 31.986528,21.006147 31.819569,20.849266 
	C32.446621,20.686871 32.477665,20.040926 32.849182,19.296803 
	C33.053013,19.083927 33.009792,19.009190 33.047195,19.030741 
	C33.578568,18.499144 34.353386,18.220610 34.834778,17.259583 
	C35.125446,16.722151 35.312325,16.452444 35.814926,16.134892 
	C36.450768,15.529657 37.131924,15.546879 37.583015,14.892251 
	C37.548550,14.592284 37.632645,14.596884 37.632114,14.554777 
	C38.063553,14.728335 38.428665,14.659640 38.615005,13.946283 
	C38.514557,13.634732 38.605831,13.596689 38.634151,13.556162 
	C39.034504,13.791343 39.359070,13.729142 39.810852,13.126974 
	C46.006756,12.621886 52.034843,12.367730 58.524559,12.144405 
	C59.161034,12.258727 59.335884,12.342217 59.763657,12.282531 
z"/>
<path fill="#265392" opacity="1.000000" stroke="none" 
	d="
M186.684937,63.273956 
	C186.642609,65.121155 186.417191,66.448616 184.542740,66.354874 
	C182.576309,66.256531 182.760757,64.749390 182.760010,63.421745 
	C182.757080,58.256672 182.740891,53.091328 182.789902,47.926655 
	C182.805756,46.255516 182.832230,44.423759 185.055649,44.069752 
	C187.134933,43.738697 188.943985,44.006977 190.128143,46.195148 
	C192.699966,50.947613 195.430344,55.614269 198.927200,60.088551 
	C198.927200,55.676773 198.902390,51.264767 198.943085,46.853363 
	C198.954559,45.608253 198.594315,44.016911 200.722885,44.045330 
	C202.703430,44.071774 202.662643,45.518211 202.667084,46.854656 
	C202.684235,52.019535 202.707260,57.185356 202.621201,62.349045 
	C202.594254,63.965981 202.665726,65.855797 200.442535,66.302620 
	C198.272720,66.738724 196.543884,66.160530 195.396881,64.080750 
	C192.869049,59.497192 190.264908,54.955719 186.688263,50.641422 
	C186.688263,54.713566 186.688263,58.785709 186.684937,63.273956 
z"/>
<path fill="#265291" opacity="1.000000" stroke="none" 
	d="
M206.072754,54.103447 
	C206.391571,45.020500 215.389130,40.265835 222.902557,44.745720 
	C224.450760,45.668839 225.308716,47.068317 225.516602,48.791954 
	C225.774719,50.931980 225.988495,53.092400 225.997086,55.244907 
	C226.037598,65.399841 224.908859,66.507065 214.907425,66.414192 
	C207.777878,66.348000 206.361496,65.010223 206.100372,58.058811 
	C206.056610,56.894043 206.080399,55.726742 206.072754,54.103447 
z"/>
<path fill="#2A5594" opacity="1.000000" stroke="none" 
	d="
M232.794128,60.667740 
	C235.651917,63.180614 238.774826,62.125076 241.693634,62.330101 
	C243.890701,62.484432 244.510071,61.226669 244.542435,59.227901 
	C244.577667,57.051991 243.313828,56.825813 241.646332,56.882057 
	C240.650101,56.915657 239.646729,56.889816 238.653091,56.809696 
	C237.432968,56.711315 236.975327,55.926342 236.991074,54.771545 
	C237.007812,53.544594 237.679520,52.950974 238.839615,52.933990 
	C241.171188,52.899857 243.503632,52.909031 245.835602,52.922150 
	C247.955276,52.934071 247.999741,54.416424 248.140182,56.009289 
	C249.010025,65.875107 244.736649,69.265640 233.901535,66.018784 
	C225.876266,63.613922 229.768845,56.248955 229.270035,50.969406 
	C228.881973,46.862213 230.932510,43.894863 235.736115,43.984074 
	C238.733780,44.039745 241.734344,43.944588 244.731720,44.007381 
	C246.119202,44.036449 247.997040,43.523159 248.061188,45.865768 
	C248.124588,48.179771 246.320663,47.885429 244.864883,47.912342 
	C242.533279,47.955444 240.200180,47.908978 237.867966,47.930164 
	C236.224121,47.945095 234.478302,47.679138 233.126770,49.681644 
	C232.013077,53.444584 232.648026,56.912617 232.794128,60.667740 
z"/>
<path fill="#245192" opacity="1.000000" stroke="none" 
	d="
M263.793701,60.323498 
	C262.373260,62.635925 264.099426,62.344921 265.095184,62.375408 
	C267.917908,62.461834 270.745148,62.385700 273.569855,62.426117 
	C274.767944,62.443260 275.940521,62.603294 276.036102,64.219734 
	C276.123199,65.692497 275.389282,66.381523 273.981903,66.384087 
	C269.661682,66.391968 265.341156,66.399544 261.021332,66.352478 
	C259.438385,66.335236 258.559357,65.410934 258.528381,63.840542 
	C258.483490,61.565437 257.984222,59.237354 260.422760,57.567699 
	C264.362671,54.870018 268.151520,51.951645 272.755859,48.575241 
	C268.503815,47.424759 265.094971,48.102264 261.762421,47.914688 
	C260.299072,47.832321 258.550354,48.214561 258.583710,45.892159 
	C258.617920,43.506832 260.467010,44.039490 261.860565,44.016605 
	C265.017487,43.964771 268.178802,43.912170 271.332245,44.027275 
	C273.149719,44.093616 275.665527,43.115555 276.128540,46.111656 
	C276.507385,48.563282 276.823090,51.094406 274.267700,52.853378 
	C270.848083,55.207264 267.498352,57.662682 263.793701,60.323498 
z"/>
<path fill="#275392" opacity="1.000000" stroke="none" 
	d="
M151.018982,62.384811 
	C153.662796,63.234612 157.902328,60.410393 157.915192,64.411697 
	C157.928268,68.485268 153.723129,66.127350 151.522797,66.285797 
	C148.060654,66.535095 143.452682,67.601028 142.056549,63.029350 
	C140.308319,57.304790 139.714630,51.239395 143.028793,45.688839 
	C143.989136,44.080479 155.856750,43.094616 157.378189,44.304073 
	C157.804596,44.643047 158.035767,45.382969 158.111984,45.970680 
	C158.226028,46.850075 157.862137,47.685772 156.883499,47.792980 
	C155.568039,47.937084 154.215179,47.765354 152.906433,47.939827 
	C150.388382,48.275532 146.847946,46.528912 145.578003,49.353500 
	C144.028427,52.800056 144.483597,56.930679 145.377808,60.620457 
	C145.967377,63.053123 148.669983,62.172318 151.018982,62.384811 
z"/>
<path fill="#18488B" opacity="1.000000" stroke="none" 
	d="
M121.073822,62.263695 
	C120.933212,60.683552 120.976807,59.506199 120.804085,58.361488 
	C120.211868,54.436749 121.848602,52.881248 125.774635,53.179417 
	C128.584213,53.392792 131.424942,53.164185 134.250122,53.218208 
	C135.483704,53.241795 137.040405,52.875198 137.101746,54.981808 
	C137.171844,57.389290 135.478333,56.996883 134.032715,57.008598 
	C131.871429,57.026119 129.709747,57.000828 127.548500,57.021065 
	C126.247398,57.033245 124.814911,56.782204 124.875481,58.902672 
	C124.924911,60.633221 125.979210,61.333519 127.376366,61.437027 
	C129.856628,61.620781 132.355194,61.606342 134.845505,61.589138 
	C136.570389,61.577221 137.743423,61.965397 137.734177,64.042526 
	C137.724533,66.208641 136.371155,66.507202 134.746475,66.330437 
	C130.034470,65.817772 124.527763,68.200417 121.073822,62.263695 
z"/>
<path fill="#204D8F" opacity="1.000000" stroke="none" 
	d="
M284.399475,56.720417 
	C282.346405,59.445961 283.310547,60.977947 286.026886,61.402760 
	C287.978119,61.707912 290.011536,61.442970 291.997620,61.583267 
	C293.762848,61.707962 296.262665,60.654976 296.181183,64.105949 
	C296.107697,67.219055 293.855316,66.222710 292.235657,66.356575 
	C290.914734,66.465759 289.577057,66.383614 288.247009,66.368088 
	C281.135071,66.285088 278.687592,63.457439 279.453217,56.474514 
	C279.696869,54.252293 280.595703,53.148945 282.885651,53.198322 
	C287.035889,53.287807 291.187592,53.309357 295.537048,53.715012 
	C295.521576,55.850952 294.604187,56.597076 292.736084,56.519230 
	C290.086761,56.408836 287.426117,56.422981 284.399475,56.720417 
z"/>
<path fill="#EBEAE6" opacity="1.000000" stroke="none" 
	d="
M76.020996,71.974121 
	C86.028130,58.158184 85.185989,46.108532 73.169769,34.293488 
	C74.627609,31.736151 76.326889,31.499222 78.187897,33.708508 
	C79.446175,35.202259 81.310036,36.194111 81.963577,38.564453 
	C82.893372,42.133480 85.025002,44.897186 85.651749,48.622360 
	C86.067932,52.561184 86.219124,56.152935 85.510475,60.065125 
	C84.322807,62.263477 83.693298,64.285133 83.004608,66.641899 
	C82.162872,68.561447 81.559662,70.304817 80.469421,71.654877 
	C79.403725,72.974541 77.950020,74.713242 76.020996,71.974121 
z"/>
<path fill="#315B99" opacity="1.000000" stroke="none" 
	d="
M166.108322,56.671143 
	C165.081528,59.223877 165.671158,61.560795 165.532700,63.849529 
	C165.442169,65.346085 165.089767,66.474274 163.291901,66.394089 
	C161.874680,66.330872 161.238785,65.547775 161.239395,64.161942 
	C161.242035,58.212368 161.230316,52.262779 161.239380,46.313225 
	C161.241333,45.036488 161.609055,44.076180 163.165283,43.995094 
	C164.923492,43.903488 165.492294,44.810406 165.514694,46.387901 
	C165.542786,48.367668 165.630325,50.346596 165.827591,52.768257 
	C167.015045,54.171799 166.776657,55.252235 166.108322,56.671143 
z"/>
<path fill="#2A5593" opacity="1.000000" stroke="none" 
	d="
M255.100189,57.908176 
	C255.094666,60.369614 255.087265,62.350258 255.084244,64.330910 
	C255.082596,65.416832 254.813736,66.299240 253.509048,66.361404 
	C252.108368,66.428146 251.300858,65.774315 251.295731,64.346848 
	C251.273773,58.240219 251.264771,52.133450 251.284546,46.026844 
	C251.289108,44.616375 252.088684,43.972485 253.502808,44.031639 
	C255.260101,44.105148 255.068100,45.424652 255.079620,46.533699 
	C255.117249,50.164608 255.097702,53.796112 255.100189,57.908176 
z"/>
<path fill="#315B99" opacity="1.000000" stroke="none" 
	d="
M176.105072,57.346592 
	C175.767471,57.049946 175.344910,57.063438 175.153625,56.973442 
	C173.267120,56.104240 171.471146,56.580242 169.724442,56.495705 
	C168.145187,56.419270 167.285965,55.842716 167.730469,53.792305 
	C170.289612,53.305161 172.632202,53.175205 175.413422,53.007771 
	C177.771759,51.661888 174.713211,47.842037 178.997330,47.710907 
	C180.151215,53.370094 179.627640,58.864594 179.473022,64.716919 
	C177.257248,65.951614 176.562866,64.979408 176.521835,63.092648 
	C176.482330,61.276344 176.585495,59.457996 176.105072,57.346592 
z"/>
<path fill="#2E5997" opacity="1.000000" stroke="none" 
	d="
M106.279984,48.267555 
	C104.244049,47.995094 102.587265,47.957165 100.930275,47.933102 
	C99.556694,47.913147 98.199127,47.906368 98.110367,45.997932 
	C98.018570,44.024113 99.381111,43.972866 100.764313,43.970577 
	C105.407257,43.962883 110.050293,43.955959 114.693146,43.979279 
	C116.170387,43.986698 117.915550,43.774769 117.783493,46.089279 
	C117.676285,47.968388 116.214096,47.912476 114.864166,47.933445 
	C113.537941,47.954044 112.211655,47.970451 110.448708,48.004715 
	C108.989128,48.835159 107.880821,49.061974 106.279984,48.267555 
z"/>
<path fill="#2E5997" opacity="1.000000" stroke="none" 
	d="
M121.601013,47.486355 
	C120.424370,45.247051 120.845413,43.978409 123.216461,43.962349 
	C127.186325,43.935463 131.156479,43.949760 135.126511,43.948078 
	C136.556259,43.947472 137.859833,44.146477 137.742706,46.039803 
	C137.627121,47.908543 136.237885,47.931118 134.868973,47.914688 
	C130.572144,47.863129 126.275436,47.801361 121.601013,47.486355 
z"/>
<path fill="#2D5896" opacity="1.000000" stroke="none" 
	d="
M286.124390,43.940746 
	C289.066040,43.945889 291.534698,43.960110 294.003326,43.952999 
	C295.347107,43.949131 296.191498,44.394779 296.158966,45.933189 
	C296.126984,47.445240 295.271667,47.912968 293.942505,47.911789 
	C290.157227,47.908424 286.371979,47.911236 282.586700,47.901108 
	C281.100555,47.897133 279.393402,48.076839 279.429962,45.858833 
	C279.467346,43.587769 281.266327,44.001232 282.689209,43.950825 
	C283.675446,43.915878 284.663910,43.942062 286.124390,43.940746 
z"/>
<path fill="#42669B" opacity="1.000000" stroke="none" 
	d="
M23.306141,28.858055 
	C23.777834,33.841415 28.313816,30.962355 30.721500,32.747711 
	C27.163498,32.345963 26.315578,34.158443 27.207975,37.490223 
	C27.994095,40.425213 27.461546,43.250237 26.321295,45.983215 
	C26.283791,46.073105 25.126846,45.964520 25.012447,45.712288 
	C23.844421,43.136940 24.474277,40.444309 24.816282,37.831703 
	C25.140055,35.358379 26.333605,32.886311 22.267845,32.340668 
	C20.765852,32.139091 20.830080,31.660509 23.306141,28.858055 
z"/>
<path fill="#2E5997" opacity="1.000000" stroke="none" 
	d="
M109.131058,50.738300 
	C109.659004,55.408012 109.741417,59.875507 109.655518,64.721848 
	C108.090630,65.618134 106.650681,65.685013 106.600365,63.806355 
	C106.491547,59.744053 106.225220,55.663372 106.756966,51.611614 
	C106.886604,50.623833 107.847343,50.554028 109.131058,50.738300 
z"/>
<path fill="#18407A" opacity="1.000000" stroke="none" 
	d="
M109.666092,50.581627 
	C108.956947,51.127678 107.840927,51.229481 107.791870,51.514759 
	C107.014221,56.037060 105.698608,60.628998 109.060837,65.011841 
	C107.223381,67.365967 106.085495,66.573349 106.028572,63.695087 
	C105.931458,58.784019 105.985863,53.869949 105.938766,48.492081 
	C106.997345,48.026875 108.093773,48.026733 109.601105,48.023659 
	C109.926544,48.754730 109.841064,49.488728 109.666092,50.581627 
z"/>
<path fill="#F2C57E" opacity="1.000000" stroke="none" 
	d="
M84.272141,61.197243 
	C85.478783,57.065681 84.725349,52.979511 84.786430,48.495804 
	C84.988503,47.899494 85.200104,47.757465 85.752678,47.788254 
	C87.494736,52.049656 86.983383,56.178894 86.114746,60.630249 
	C85.520988,61.329071 85.085236,61.467293 84.272141,61.197243 
z"/>
<path fill="#EBC885" opacity="1.000000" stroke="none" 
	d="
M86.087631,47.579147 
	C85.874619,47.973804 85.655579,47.986538 85.106720,48.020401 
	C83.885544,45.039108 81.657074,42.544170 81.729752,39.092842 
	C84.387650,41.166496 85.642181,43.981628 86.087631,47.579147 
z"/>
<path fill="#14407B" opacity="1.000000" stroke="none" 
	d="
M167.623779,53.348312 
	C168.487946,58.039082 172.528854,54.801159 174.701553,56.608418 
	C172.263367,56.919754 169.564392,56.956062 166.414062,56.987854 
	C164.850708,55.903454 166.279404,54.866287 165.989594,53.505650 
	C166.408844,53.227585 166.854691,53.244545 167.623779,53.348312 
z"/>
<path fill="#14407B" opacity="1.000000" stroke="none" 
	d="
M179.478699,47.456730 
	C176.177841,48.054619 177.631882,51.113380 176.174683,52.767662 
	C175.889267,51.043068 175.908508,49.115253 175.971664,47.188877 
	C176.001495,46.278881 175.780380,45.187527 177.177490,45.012707 
	C178.696732,44.822598 179.716232,45.219608 179.478699,47.456730 
z"/>
<path fill="#EFCD92" opacity="1.000000" stroke="none" 
	d="
M83.727928,61.237465 
	C84.390755,60.991745 84.815063,60.987659 85.556320,60.966743 
	C85.744354,63.102421 84.632317,64.845116 83.250977,66.789536 
	C81.359665,64.987541 83.427101,63.326122 83.727928,61.237465 
z"/>
<path fill="#18407A" opacity="1.000000" stroke="none" 
	d="
M284.485046,56.947384 
	C285.897156,55.218273 288.171082,56.266747 290.248505,55.991398 
	C291.973541,55.762760 294.005402,56.659431 295.470398,54.328861 
	C296.417023,56.030689 296.023438,57.116344 293.644196,57.023430 
	C290.747681,56.910309 287.843445,56.993561 284.485046,56.947384 
z"/>
<path fill="#18407A" opacity="1.000000" stroke="none" 
	d="
M175.851944,57.492889 
	C178.862228,58.903038 175.161850,63.119774 178.888397,64.986969 
	C177.626419,66.859528 176.276306,67.092049 176.002243,64.198547 
	C175.806076,62.127476 175.946289,60.024548 175.851944,57.492889 
z"/>
<path fill="#14407B" opacity="1.000000" stroke="none" 
	d="
M233.036285,60.525604 
	C231.026291,57.641556 232.074722,54.095287 232.632019,50.316948 
	C232.956451,53.378181 232.993134,56.723904 233.036285,60.525604 
z"/>
<path fill="#406DA6" opacity="1.000000" stroke="none" 
	d="
M48.984169,24.615303 
	C48.239563,25.922340 47.081318,26.566753 46.481853,25.165117 
	C45.972294,23.973692 47.311638,23.353830 48.772324,23.054373 
	C49.059338,23.478374 49.002026,23.891371 48.984169,24.615303 
z"/>
<path fill="#C5D2E1" opacity="1.000000" stroke="none" 
	d="
M44.863842,30.448992 
	C45.376907,29.632704 45.955040,29.311047 46.788456,29.058582 
	C47.053181,29.457811 47.062626,29.787844 47.136646,30.609219 
	C46.621792,31.457947 46.042358,31.815338 45.220100,32.056477 
	C44.961151,31.608025 44.945030,31.275822 44.863842,30.448992 
z"/>
<path fill="#42669B" opacity="1.000000" stroke="none" 
	d="
M64.677734,14.142719 
	C64.282631,13.816416 64.171211,13.329598 64.014000,12.470509 
	C64.585854,12.161210 65.203491,12.224182 65.821129,12.287154 
	C65.534554,12.852171 65.247986,13.417188 64.677734,14.142719 
z"/>
<path fill="#42669B" opacity="1.000000" stroke="none" 
	d="
M34.756676,17.154911 
	C34.995728,17.975107 34.611374,18.653635 33.396469,19.013430 
	C33.550480,18.452810 34.016361,17.853327 34.756676,17.154911 
z"/>
<path fill="#42669B" opacity="1.000000" stroke="none" 
	d="
M32.780441,19.171490 
	C32.788513,19.598331 32.524014,20.112738 31.956059,20.659763 
	C31.937696,20.214607 32.222786,19.736832 32.780441,19.171490 
z"/>
<path fill="#42669B" opacity="1.000000" stroke="none" 
	d="
M37.287338,14.679957 
	C37.650101,15.309625 37.296940,15.729954 36.346241,15.992086 
	C36.367455,15.604495 36.696789,15.186063 37.287338,14.679957 
z"/>
<path fill="#42669B" opacity="1.000000" stroke="none" 
	d="
M62.387032,17.114197 
	C62.359516,16.661808 62.589428,16.092932 63.148277,15.538332 
	C63.199627,16.034307 62.922043,16.516010 62.387032,17.114197 
z"/>
<path fill="#42669B" opacity="1.000000" stroke="none" 
	d="
M59.755890,12.059532 
	C59.738808,12.249789 59.461037,12.360225 59.084724,12.322948 
	C59.155857,12.110062 59.325527,12.044886 59.755890,12.059532 
z"/>
<path fill="#42669B" opacity="1.000000" stroke="none" 
	d="
M39.707466,12.840372 
	C39.722942,13.126500 39.467220,13.376958 38.936989,13.571526 
	C38.920403,13.278658 39.178337,13.041679 39.707466,12.840372 
z"/>
<path fill="#42669B" opacity="1.000000" stroke="none" 
	d="
M38.298210,13.698469 
	C38.402275,13.944240 38.289989,14.253748 37.904648,14.537962 
	C37.655666,14.186919 37.805759,13.936765 38.298210,13.698469 
z"/>
<path fill="#42669B" opacity="1.000000" stroke="none" 
	d="
M63.841949,15.241748 
	C63.703678,15.027991 63.760273,14.720177 64.078102,14.388741 
	C64.372139,14.677628 64.271294,14.938484 63.841949,15.241748 
z"/>
<path fill="#42669B" opacity="1.000000" stroke="none" 
	d="
M60.490349,19.323168 
	C60.392948,19.040958 60.600914,18.689966 61.121208,18.276031 
	C61.220924,18.560188 61.008320,18.907286 60.490349,19.323168 
z"/>
<path fill="#42669B" opacity="1.000000" stroke="none" 
	d="
M53.319717,21.095005 
	C53.345932,20.829865 53.677029,20.583248 54.322876,20.409313 
	C54.299957,20.692505 53.962276,20.903017 53.319717,21.095005 
z"/>
<path fill="#42669B" opacity="1.000000" stroke="none" 
	d="
M31.421215,20.761866 
	C31.516922,21.002089 31.376509,21.314825 30.960140,21.640823 
	C30.719393,21.300344 30.886362,21.027107 31.421215,20.761866 
z"/>
<path fill="#42669B" opacity="1.000000" stroke="none" 
	d="
M30.406683,21.754864 
	C30.504025,21.992723 30.362741,22.300711 29.951046,22.632839 
	C29.701864,22.296909 29.864340,22.019581 30.406683,21.754864 
z"/>
<path fill="#42669B" opacity="1.000000" stroke="none" 
	d="
M29.403311,22.779541 
	C29.495300,23.019714 29.330257,23.354555 28.872486,23.735725 
	C28.768600,23.479441 28.957438,23.176826 29.403311,22.779541 
z"/>
<path fill="#42669B" opacity="1.000000" stroke="none" 
	d="
M25.512947,26.678139 
	C25.604128,26.922325 25.434292,27.257391 24.970804,27.635942 
	C24.868748,27.375957 25.060341,27.072487 25.512947,26.678139 
z"/>
<path fill="#42669B" opacity="1.000000" stroke="none" 
	d="
M24.417168,27.762684 
	C24.514076,28.002304 24.372610,28.312635 23.957977,28.642197 
	C23.709442,28.301893 23.874104,28.025881 24.417168,27.762684 
z"/>
<path fill="#F7A727" opacity="1.000000" stroke="none" 
	d="
M65.721954,35.870960 
	C66.575256,36.081890 67.113907,36.283081 67.843857,36.702991 
	C68.239471,37.199394 68.464600,37.459030 68.967270,37.726837 
	C69.223862,37.753185 68.980087,37.885132 69.093613,37.805481 
	C69.353561,38.440540 69.968452,38.491558 70.728981,38.839493 
	C70.947479,39.033199 70.995964,38.998047 70.982254,39.024620 
	C71.628944,39.828568 72.102249,40.735840 72.993568,41.651657 
	C73.281715,41.750374 73.188110,41.956326 73.242165,41.852013 
	C73.463272,42.544895 74.085831,43.020283 74.794632,43.778503 
	C75.307098,44.455963 75.615097,44.934120 75.953110,45.704094 
	C76.010979,46.876503 75.970657,47.772713 76.809990,48.744217 
	C77.057571,48.964333 77.243652,49.292713 77.244621,49.481426 
	C77.684029,51.501019 77.384186,53.367603 77.588577,55.603508 
	C77.642281,56.554291 77.621056,57.114994 77.459503,57.922272 
	C75.426697,59.447369 76.072235,61.658329 75.193489,63.684456 
	C74.984558,63.982861 75.000000,64.000000 74.990669,63.993328 
	C74.225021,64.677658 73.778915,65.567230 73.164742,66.695816 
	C72.770187,67.181229 72.591469,67.458183 72.194260,67.857559 
	C71.794891,68.123169 71.613998,68.266373 71.113937,68.283600 
	C69.042946,66.935532 71.186028,63.714714 67.905518,63.255455 
	C63.178135,66.533928 58.474331,68.385056 52.638874,66.417007 
	C51.876568,66.040535 51.452721,65.809341 50.717113,65.407547 
	C49.562973,64.793533 48.813072,64.241936 48.143158,63.108978 
	C47.779629,62.396912 47.584690,61.984314 47.225449,61.271782 
	C44.425316,57.144176 41.816971,53.298038 38.977360,49.194168 
	C38.871628,48.448929 38.903591,48.026306 39.059517,47.307957 
	C40.110649,46.391850 40.600208,45.530838 40.634083,44.097481 
	C40.653057,43.786152 40.881672,43.842552 40.776360,43.789917 
	C41.490696,43.655125 41.481312,42.973892 41.768463,42.130436 
	C41.959606,41.541050 42.101479,41.276192 42.523636,40.935570 
	C43.921452,40.318237 44.658642,39.275280 45.726967,38.151192 
	C45.913036,37.900089 46.001537,37.986622 45.956818,37.946640 
	C46.789341,37.417088 47.783123,37.138451 48.760731,36.232025 
	C48.971416,36.014843 49.285908,35.801395 49.474648,35.779205 
	C52.788742,34.721642 56.006390,34.374744 59.652447,34.297714 
	C60.454662,34.138954 60.887402,34.149918 61.630150,34.261444 
	C63.019012,35.039497 64.205032,35.469158 65.721954,35.870960 
z"/>
<path fill="#DD8E16" opacity="1.000000" stroke="none" 
	d="
M38.809486,48.821724 
	C43.458668,51.381210 44.671883,56.621357 47.983246,60.559765 
	C47.753960,61.468475 47.271942,61.860302 46.685707,62.555244 
	C46.162292,63.558624 46.015072,64.372856 45.665115,65.465172 
	C45.392998,65.935257 45.249817,66.104240 44.798992,66.407593 
	C42.831284,66.790329 42.018513,65.730316 40.992783,64.411179 
	C40.662979,64.332466 40.729057,64.232147 40.671471,64.249229 
	C40.167141,62.950638 39.343098,61.811432 38.734852,60.190418 
	C38.458534,59.452259 38.305943,59.037109 38.145775,58.288315 
	C38.041382,55.172516 37.659184,52.377575 38.590961,49.226719 
	C38.671295,48.815559 38.779305,48.771904 38.809486,48.821724 
z"/>
<path fill="#B0843C" opacity="1.000000" stroke="none" 
	d="
M67.686142,70.754944 
	C63.070267,75.328117 57.412956,74.508011 51.353058,73.065666 
	C50.961071,71.488655 51.991272,71.287529 53.308571,70.960487 
	C54.159306,70.917870 54.641735,70.951515 55.469090,71.090424 
	C56.949966,71.518898 58.082478,71.567719 59.566769,71.058975 
	C62.409569,70.881905 64.836105,69.712090 67.686142,70.754944 
z"/>
<path fill="#DD8E16" opacity="1.000000" stroke="none" 
	d="
M54.211155,71.830322 
	C53.151260,72.166252 52.299728,72.264633 51.226807,72.596268 
	C50.459690,72.694366 49.913952,72.559196 49.182632,72.205536 
	C48.744850,71.746635 48.497684,71.501183 47.998093,71.207520 
	C47.463810,71.078606 47.206486,70.952911 46.808239,70.643463 
	C46.776077,69.574432 46.066177,69.538857 45.153999,69.294899 
	C44.841679,69.203308 44.878006,69.040154 44.839603,69.114388 
	C44.355640,68.397179 44.186272,67.575272 44.772202,66.339920 
	C45.017975,65.982674 45.108681,65.890686 45.154114,65.844772 
	C45.391510,65.738350 45.583481,65.677841 46.066113,65.697563 
	C46.527828,65.878349 46.698887,65.978889 47.307114,66.452469 
	C48.121605,67.188995 48.476452,67.595459 49.356689,67.475540 
	C50.239227,67.405029 50.774681,67.603912 51.486931,68.156967 
	C52.387409,69.129921 53.152042,69.805489 54.119621,70.720345 
	C54.348351,71.177536 54.383934,71.385162 54.211155,71.830322 
z"/>
<path fill="#E49C27" opacity="1.000000" stroke="none" 
	d="
M54.316792,72.076889 
	C53.998787,71.887276 53.994781,71.706688 53.979210,71.255386 
	C54.710960,70.010902 55.869099,69.904747 57.234283,69.485825 
	C57.966099,69.311562 58.387127,69.257118 59.117893,69.255516 
	C60.000484,69.337288 60.576416,69.443298 61.433846,69.274872 
	C62.241596,68.961685 62.782410,68.747330 63.650150,68.591507 
	C64.350540,68.617790 64.749283,68.679459 65.449715,68.800797 
	C66.164627,68.907066 66.572357,68.985184 67.279800,69.175888 
	C67.765175,69.381363 67.947792,69.490234 68.305206,69.865822 
	C68.480019,70.132545 68.245110,70.563103 68.118797,70.773132 
	C65.268723,71.082008 62.734829,72.564941 59.515190,72.086227 
	C58.342327,72.610497 57.487934,72.460609 56.269806,72.263466 
	C55.468460,72.086807 55.049622,72.086357 54.316792,72.076889 
z"/>
<path fill="#AD8241" opacity="1.000000" stroke="none" 
	d="
M38.395630,49.058125 
	C39.135117,51.666260 39.173016,54.517307 38.408226,57.661736 
	C36.538750,55.073372 36.856373,52.188026 38.395630,49.058125 
z"/>
<path fill="#C69A4F" opacity="1.000000" stroke="none" 
	d="
M59.599102,33.990013 
	C56.974682,35.347927 53.720989,35.489132 50.095459,35.851032 
	C52.478321,33.344109 55.872044,33.821514 59.599102,33.990013 
z"/>
<path fill="#AD8241" opacity="1.000000" stroke="none" 
	d="
M44.674564,65.989792 
	C44.984364,66.785065 44.950752,67.587448 44.859169,68.789230 
	C42.695484,68.520073 41.564610,66.909531 40.705784,64.663605 
	C41.885704,64.887283 43.108429,65.442101 44.674564,65.989792 
z"/>
<path fill="#C69A4F" opacity="1.000000" stroke="none" 
	d="
M75.287445,63.798370 
	C75.158325,62.003857 74.399040,59.760666 76.949341,58.259346 
	C77.356606,60.178715 76.594009,61.934570 75.287445,63.798370 
z"/>
<path fill="#AD8241" opacity="1.000000" stroke="none" 
	d="
M38.502377,60.183556 
	C40.156933,60.632580 40.644970,62.022350 40.714500,63.933075 
	C39.115726,63.457630 38.612972,62.062195 38.502377,60.183556 
z"/>
<path fill="#C69A4F" opacity="1.000000" stroke="none" 
	d="
M68.791260,70.131622 
	C68.268997,70.094864 68.057968,70.057175 67.528656,69.973824 
	C67.014893,69.797668 66.819412,69.667191 66.622650,68.843491 
	C66.772995,67.965912 66.924637,67.781555 67.393913,67.429092 
	C68.670891,66.982674 69.603264,66.991913 70.764168,67.747757 
	C71.041481,67.974228 71.508919,67.929756 71.742355,67.954865 
	C71.476837,69.309837 70.364426,69.820137 68.791260,70.131622 
z"/>
<path fill="#C69A4F" opacity="1.000000" stroke="none" 
	d="
M45.591309,37.947411 
	C45.958965,39.614525 45.131149,40.603497 43.078876,40.844856 
	C43.139748,39.486042 44.093380,38.639565 45.591309,37.947411 
z"/>
<path fill="#C69A4F" opacity="1.000000" stroke="none" 
	d="
M65.837952,35.618561 
	C64.393456,36.927567 63.208012,36.049820 62.009041,34.650646 
	C63.376350,33.937817 64.464279,34.809135 65.837952,35.618561 
z"/>
<path fill="#C69A4F" opacity="1.000000" stroke="none" 
	d="
M77.086746,48.631195 
	C75.343025,48.839542 74.745041,48.030254 75.734421,46.198112 
	C76.360725,46.763294 76.738319,47.530674 77.086746,48.631195 
z"/>
<path fill="#C69A4F" opacity="1.000000" stroke="none" 
	d="
M77.803345,55.605728 
	C76.451721,54.273689 77.131599,52.344727 77.150932,50.084682 
	C78.425171,51.400295 77.991974,53.333252 77.803345,55.605728 
z"/>
<path fill="#C69A4F" opacity="1.000000" stroke="none" 
	d="
M73.248558,66.799225 
	C72.970352,65.752777 72.983551,64.597336 74.645355,64.029579 
	C75.024803,65.165031 74.349136,65.962753 73.248558,66.799225 
z"/>
<path fill="#C69A4F" opacity="1.000000" stroke="none" 
	d="
M48.651535,36.007240 
	C48.913052,37.532578 47.976341,38.007820 46.268761,37.949051 
	C46.360054,36.816051 47.292625,36.340313 48.651535,36.007240 
z"/>
<path fill="#C69A4F" opacity="1.000000" stroke="none" 
	d="
M40.390625,43.953712 
	C41.002975,44.974884 41.199059,46.124435 39.523781,46.948143 
	C38.969570,45.875767 39.599400,45.015030 40.390625,43.953712 
z"/>
<path fill="#C69A4F" opacity="1.000000" stroke="none" 
	d="
M74.980560,43.672165 
	C73.974098,43.947605 73.262688,43.546452 73.228638,42.085838 
	C74.178444,41.950863 74.637131,42.589848 74.980560,43.672165 
z"/>
<path fill="#C69A4F" opacity="1.000000" stroke="none" 
	d="
M73.235214,41.438004 
	C71.928154,41.735622 71.372559,40.833572 70.991638,39.381409 
	C72.147270,39.273186 72.690239,40.175594 73.235214,41.438004 
z"/>
<path fill="#C69A4F" opacity="1.000000" stroke="none" 
	d="
M70.844818,38.756088 
	C70.407249,38.800766 69.867012,38.568333 69.266960,38.030869 
	C69.718811,37.976883 70.230476,38.227928 70.844818,38.756088 
z"/>
<path fill="#C69A4F" opacity="1.000000" stroke="none" 
	d="
M41.638268,41.993053 
	C41.712639,42.443783 41.519936,43.034725 40.999138,43.681473 
	C40.904427,43.202610 41.137810,42.667938 41.638268,41.993053 
z"/>
<path fill="#AD8241" opacity="1.000000" stroke="none" 
	d="
M44.969460,69.469826 
	C45.546162,69.076721 46.174046,69.169884 46.627983,70.159325 
	C46.130955,70.245201 45.614098,69.990776 44.969460,69.469826 
z"/>
<path fill="#B0843C" opacity="1.000000" stroke="none" 
	d="
M47.872215,71.401039 
	C48.080254,71.272057 48.419872,71.379745 48.878265,71.737228 
	C48.665962,71.870590 48.334881,71.754143 47.872215,71.401039 
z"/>
<path fill="#C69A4F" opacity="1.000000" stroke="none" 
	d="
M69.111244,37.513802 
	C68.891708,37.647617 68.559555,37.542046 68.131271,37.179092 
	C68.356300,37.039280 68.677467,37.156849 69.111244,37.513802 
z"/>
<path fill="#FCFDFE" opacity="1.000000" stroke="none" 
	d="
M222.049667,55.020828 
	C221.961121,61.941658 218.412964,64.297905 212.149750,62.169682 
	C210.616974,61.648849 210.047012,60.709389 210.046448,59.227196 
	C210.045929,57.895191 210.041534,56.563183 210.042572,55.231178 
	C210.048126,48.073540 212.376297,46.282627 219.439621,47.979275 
	C223.442215,48.940712 221.512817,52.234432 222.049667,55.020828 
z"/>
<path fill="#3B4D65" opacity="1.000000" stroke="none" 
	d="
M64.263153,68.866486 
	C63.467125,69.131149 63.000343,69.428024 62.281921,69.843109 
	C61.657516,70.345390 61.205139,70.507767 60.322845,70.309082 
	C59.533539,70.163292 59.094616,70.157097 58.329628,70.199493 
	C55.800041,70.618286 53.612953,70.864426 51.329865,69.145630 
	C50.542995,68.617348 50.077957,68.349785 49.342541,68.036087 
	C48.480133,67.885101 47.979126,67.565430 47.304161,67.050049 
	C47.154915,66.796013 47.158077,66.780411 47.165760,66.774071 
	C46.818436,66.756348 46.534248,66.608681 46.179379,66.122391 
	C46.037880,65.920059 45.622894,65.828697 45.411217,65.813774 
	C45.223557,64.906601 45.247570,64.014359 45.306412,62.788342 
	C45.874641,60.733528 47.240547,61.814667 48.487041,61.941086 
	C49.302277,62.805614 49.851646,63.328022 50.673256,63.948597 
	C51.121208,64.194221 51.296917,64.341667 51.771988,64.658737 
	C57.873619,67.882179 62.808720,66.025925 67.695251,61.940155 
	C69.265533,61.369530 70.287384,61.586433 70.433594,63.070446 
	C70.645874,65.225105 69.626060,66.707619 67.253754,67.689110 
	C66.878700,67.855087 66.846817,67.775299 66.803864,67.775833 
	C66.362480,68.777290 65.515053,68.910660 64.263153,68.866486 
z"/>
<path fill="#D1A149" opacity="1.000000" stroke="none" 
	d="
M67.293015,67.911201 
	C67.231873,65.836334 71.900879,65.122444 68.326538,61.884323 
	C71.008888,61.483265 71.008888,61.483265 71.012604,67.554184 
	C69.930099,67.971924 68.818710,67.969620 67.293015,67.911201 
z"/>
<path fill="#B0843C" opacity="1.000000" stroke="none" 
	d="
M48.748127,62.006165 
	C47.836082,62.274849 46.919254,62.266487 45.671837,62.356354 
	C45.363609,61.120487 46.338535,61.042553 47.670708,60.931602 
	C48.268215,61.177803 48.505779,61.453461 48.748127,62.006165 
z"/>
<path fill="#B0843C" opacity="1.000000" stroke="none" 
	d="
M51.955254,64.610565 
	C51.759926,64.726601 51.448505,64.624847 51.041294,64.284927 
	C51.302071,64.010651 51.599957,64.125984 51.955254,64.610565 
z"/>
<path fill="#DD8E16" opacity="1.000000" stroke="none" 
	d="
M56.103104,72.315247 
	C56.689846,72.069695 57.492401,72.052124 58.696564,72.059067 
	C58.303108,73.030991 57.369171,73.138771 56.103104,72.315247 
z"/>
<path fill="#C08F43" opacity="1.000000" stroke="none" 
	d="
M51.119221,69.194016 
	C53.079491,69.275688 55.150948,69.666473 57.612988,70.152664 
	C57.058147,71.222893 55.835442,70.936668 54.326187,70.981262 
	C52.811234,70.941635 51.864475,70.511230 51.119221,69.194016 
z"/>
<path fill="#C08F43" opacity="1.000000" stroke="none" 
	d="
M47.190407,67.062103 
	C47.686806,67.026443 48.218693,67.256874 48.911373,67.738617 
	C48.006084,69.026672 47.684715,67.985680 47.190407,67.062103 
z"/>
<path fill="#AD8241" opacity="1.000000" stroke="none" 
	d="
M46.141693,66.158676 
	C46.341801,66.049477 46.645721,66.178902 47.061543,66.538025 
	C46.864132,66.644257 46.554821,66.520775 46.141693,66.158676 
z"/>
<path fill="#D1A149" opacity="1.000000" stroke="none" 
	d="
M64.043396,69.083130 
	C64.400505,67.915596 65.364944,68.072868 66.449059,67.795593 
	C66.821106,67.938332 66.881317,68.100288 66.989326,68.516983 
	C66.692856,69.385574 66.066345,69.461205 65.233139,69.792282 
	C64.715385,69.771248 64.434135,69.551613 64.043396,69.083130 
z"/>
<path fill="#C08F43" opacity="1.000000" stroke="none" 
	d="
M60.148941,70.363464 
	C60.426308,70.064964 60.880150,69.960449 61.682137,69.908630 
	C61.632156,70.646690 61.112377,70.984131 60.148941,70.363464 
z"/>
<path fill="#F7A727" opacity="1.000000" stroke="none" 
	d="
M65.364418,69.990166 
	C65.479530,69.647797 65.962425,69.304718 66.741226,68.866684 
	C67.061882,68.965164 67.086639,69.158615 67.160889,69.640106 
	C66.717651,69.948586 66.224930,69.969017 65.364418,69.990166 
z"/>
</svg>